<svg xmlns="http://www.w3.org/2000/svg" xmlns:xlink="http://www.w3.org/1999/xlink" version="1.1" width="238px" height="228px" viewBox="-0.5 -0.5 238 228">
    <title>A hexagonal application core with driving and driven adapters attached at its ports</title>
    <defs/>
    <g>
        <path d="M 68 61 L 168 61 L 218 141 L 168 221 L 68 221 L 18 141 Z" fill="none" stroke="currentColor" stroke-width="2" stroke-miterlimit="10" pointer-events="all"/>
        <g transform="translate(-0.5 -0.5)">
            <text x="118" y="145" font-size="14px" text-anchor="middle" font-weight="bold" fill="currentColor" font-family="inherit" dominant-baseline="central">APPLICATION</text>
        </g>
        <rect x="138" y="1" width="80" height="40" fill="none" stroke="none" pointer-events="all"/>
        <g fill="currentColor" font-family="inherit" font-weight="bold" text-anchor="end" font-size="16px">
            <text x="217.5" y="27.5">Outputs</text>
        </g>
        <rect x="18" y="1" width="80" height="40" fill="none" stroke="none" pointer-events="all"/>
        <g fill="currentColor" font-family="inherit" font-weight="bold" font-size="16px">
            <text x="17.5" y="27.5">Inputs</text>
        </g>
        <path d="M 2 164 L 82 164 L 82 194 L 2 194 L 2 164 Z" fill="currentColor" stroke="none" transform="rotate(60,42,179)" pointer-events="none"/>
        <path d="M 2 164 L 82 164 L 82 194 L 2 194 L 2 164 Z" fill="none" stroke="currentColor" stroke-miterlimit="10" transform="rotate(60,42,179)" pointer-events="none"/>
        <path d="M 19 144 L 49 166.22 L 49 201.78 L 19 224 Z" fill="#9ddbef" stroke="currentColor" stroke-width="2" stroke-miterlimit="10" transform="rotate(-30,34,184)" pointer-events="none"/>
        <path d="M 153 164 L 233 164 L 233 194 L 153 194 L 153 164 Z" fill="currentColor" stroke="none" transform="rotate(120,193,179)" pointer-events="none"/>
        <path d="M 153 164 L 233 164 L 233 194 L 153 194 L 153 164 Z" fill="none" stroke="currentColor" stroke-miterlimit="10" transform="rotate(120,193,179)" pointer-events="none"/>
        <path d="M 188 143 L 218 165.22 L 218 200.78 L 188 223 Z" fill="#9ddbef" stroke="currentColor" stroke-width="2" stroke-miterlimit="10" transform="rotate(210,203,183)" pointer-events="none"/>
        <path d="M 154 88 L 234 88 L 234 118 L 154 118 L 154 88 Z" fill="currentColor" stroke="none" transform="rotate(-122,194,103)" pointer-events="none"/>
        <path d="M 154 88 L 234 88 L 234 118 L 154 118 L 154 88 Z" fill="none" stroke="currentColor" stroke-miterlimit="10" transform="rotate(-122,194,103)" pointer-events="none"/>
        <path d="M 187 58 L 217 80.22 L 217 115.78 L 187 138 Z" fill="#9ddbef" stroke="currentColor" stroke-width="2" stroke-miterlimit="10" transform="rotate(-212,202,98)" pointer-events="none"/>
        <path d="M 1 89 L 81 89 L 81 119 L 1 119 L 1 89 Z" fill="currentColor" stroke="none" transform="rotate(120,41,104)" pointer-events="none"/>
        <path d="M 1 89 L 81 89 L 81 119 L 1 119 L 1 89 Z" fill="none" stroke="currentColor" stroke-miterlimit="10" transform="rotate(120,41,104)" pointer-events="none"/>
        <path d="M 19 59 L 49 81.22 L 49 116.78 L 19 139 Z" fill="#9ddbef" stroke="currentColor" stroke-width="2" stroke-miterlimit="10" transform="rotate(30,34,99)" pointer-events="none"/>
    </g>
</svg>
