<svg xmlns="http://www.w3.org/2000/svg" version="1.1" width="441px" height="263px" viewBox="-0.5 -0.5 441 263">
    <title>A monolith performing a relational join across the Products and Orders tables in a single database</title>
    <g>
        <rect x="1" y="1" width="438" height="60" fill="none" stroke="currentColor" stroke-width="2" rx="10" ry="10"/>
        <rect x="21" y="16" width="170" height="30" fill="none" stroke="currentColor" stroke-width="2"/>
        <text x="106" y="31" text-anchor="middle" dominant-baseline="central" font-size="14" font-family="inherit" font-weight="bold" fill="currentColor">Product Catalog</text>
        <rect x="249" y="16" width="170" height="30" fill="none" stroke="currentColor" stroke-width="2"/>
        <text x="334" y="31" text-anchor="middle" dominant-baseline="central" font-size="14" font-family="inherit" font-weight="bold" fill="currentColor">Orders</text>
        <path d="M 1 105 A 219 14 0 0 1 439 105 L 439 247 A 219 14 0 0 1 1 247 Z" fill="none" stroke="currentColor" stroke-width="2"/>
        <path d="M 1 105 A 219 14 0 0 0 439 105" fill="none" stroke="currentColor" stroke-width="2"/>
        <rect x="56" y="141" width="100" height="36" fill="none" stroke="currentColor" stroke-width="2"/>
        <path d="M 56 159 L 156 159" fill="none" stroke="currentColor" stroke-width="2"/>
        <path d="M 89.3 141 L 89.3 177" fill="none" stroke="currentColor" stroke-width="2"/>
        <path d="M 122.7 141 L 122.7 177" fill="none" stroke="currentColor" stroke-width="2"/>
        <text x="106" y="210" text-anchor="middle" dominant-baseline="central" font-size="14" font-family="inherit" font-weight="bold" fill="currentColor">Products</text>
        <rect x="284" y="141" width="100" height="36" fill="none" stroke="currentColor" stroke-width="2"/>
        <path d="M 284 159 L 384 159" fill="none" stroke="currentColor" stroke-width="2"/>
        <path d="M 317.3 141 L 317.3 177" fill="none" stroke="currentColor" stroke-width="2"/>
        <path d="M 350.7 141 L 350.7 177" fill="none" stroke="currentColor" stroke-width="2"/>
        <text x="334" y="210" text-anchor="middle" dominant-baseline="central" font-size="14" font-family="inherit" font-weight="bold" fill="currentColor">Orders</text>
        <path d="M 106 48 L 106 130" fill="none" stroke="currentColor" stroke-width="2"/>
        <path d="M 106 139 L 101 129 L 111 129 Z" fill="currentColor" stroke="none"/>
        <path d="M 334 48 L 334 130" fill="none" stroke="currentColor" stroke-width="2"/>
        <path d="M 334 139 L 329 129 L 339 129 Z" fill="currentColor" stroke="none"/>
        <path d="M 288.3 47.1 L 159.1 134.8" fill="none" stroke="currentColor" stroke-width="2"/>
        <path d="M 151.7 139.9 L 157.1 130.1 L 162.7 138.4 Z" fill="currentColor" stroke="none"/>
    </g>
</svg>
