<svg xmlns="http://www.w3.org/2000/svg" xmlns:xlink="http://www.w3.org/1999/xlink" version="1.1" width="441px" height="271px" viewBox="-0.5 -0.5 441 271">
    <title>A monolith performing a relational join across the Products and Orders tables in a single database</title>
    <defs/>
    <g>
        <g>
            <g>
                <g>
                    <g>
                        <rect x="0" y="0" width="440" height="80" rx="12" ry="12" fill="none" stroke="none" pointer-events="all"/>
                        <path d="M 12 0 C 119.18 -5.73 225.49 -5.92 428 0 M 12 0 C 145.57 -2.02 280.74 -1.92 428 0 M 428 0 C 438.52 -3.72 442.76 4.13 440 12 M 428 0 C 439.79 2.42 435.64 8.5 440 12 M 440 12 C 439.16 23.73 437.13 35.44 440 68 M 440 12 C 438.78 24.48 439.38 37.57 440 68 M 440 68 C 439.49 74.56 438.61 81.4 428 80 M 440 68 C 439.54 78.36 438.6 77.71 428 80 M 428 80 C 319.56 83.34 209.36 83.1 12 80 M 428 80 C 263.79 80.52 101.71 80.43 12 80 M 12 80 C 6.18 82.76 3 72.19 0 68 M 12 80 C 3.04 77.37 1.38 73.27 0 68 M 0 68 C 1.49 54.81 0.58 41.41 0 12 M 0 68 C 1.8 54.09 0.28 36.99 0 12 M 0 12 C 3.41 0.2 4.71 3.36 12 0 M 0 12 C 4.31 2.28 4.86 1.93 12 0" fill="none" stroke="currentColor" stroke-linejoin="round" stroke-linecap="round" stroke-miterlimit="10" pointer-events="all"/>
                    </g>
                </g>
                <g>
                    <g>
                        <rect x="240" y="20" width="160" height="40" fill="none" stroke="none" pointer-events="all"/>
                        <path d="M 240 20 C 278.42 22.87 323.18 22.91 400 20 M 240 20 C 303.83 16.69 367.4 15.31 400 20 M 400 20 C 399.66 35.56 399.35 49.73 400 60 M 400 20 C 401.11 34.23 399.48 51.71 400 60 M 400 60 C 361.4 60.06 325.67 56.25 240 60 M 400 60 C 355.69 60.47 312.13 58.57 240 60 M 240 60 C 237.46 51.68 239.93 38.48 240 20 M 240 60 C 239.31 47.79 239.34 37.82 240 20" fill="none" stroke="currentColor" stroke-linejoin="round" stroke-linecap="round" stroke-miterlimit="10" pointer-events="all"/>
                    </g>
                    <g>
                        <g transform="translate(-0.5 -0.5)">
                            <text x="320" y="45" font-size="15px" text-anchor="middle" font-weight="bold" fill="currentColor" font-family="inherit" dominant-baseline="central">Orders</text>
                        </g>
                    </g>
                </g>
                <g>
                    <g>
                        <rect x="40" y="20" width="160" height="40" fill="none" stroke="none" pointer-events="all"/>
                        <path d="M 40 20 C 84.14 23.35 126.54 23.79 200 20 M 40 20 C 81.74 21.59 123.98 22.64 200 20 M 200 20 C 198.32 33.31 195.74 38.22 200 60 M 200 20 C 199.7 32.78 199.87 48.83 200 60 M 200 60 C 134.34 62.89 76.73 62.09 40 60 M 200 60 C 147.63 61.39 99.57 61.26 40 60 M 40 60 C 43.02 54 38.55 38.8 40 20 M 40 60 C 41.45 49.57 41.82 41.21 40 20" fill="none" stroke="currentColor" stroke-linejoin="round" stroke-linecap="round" stroke-miterlimit="10" pointer-events="all"/>
                    </g>
                    <g>
                        <g transform="translate(-0.5 -0.5)">
                            <text x="120" y="45" font-size="15px" text-anchor="middle" font-weight="bold" fill="currentColor" font-family="inherit" dominant-baseline="central">Product Catalog</text>
                        </g>
                    </g>
                </g>
                <g>
                    <g>
                        <path d="M 0 135 C 0 126.72 98.5 120 220 120 C 278.35 120 334.31 121.58 375.56 124.39 C 416.82 127.21 440 131.02 440 135 L 440 255 C 440 263.28 341.5 270 220 270 C 98.5 270 0 263.28 0 255 Z" fill="none" stroke="none" pointer-events="all"/>
                        <path d="M 440 135 C 440 143.28 341.5 150 220 150 C 98.5 150 0 143.28 0 135" fill="none" stroke="none" pointer-events="all"/>
                        <path d="M 0 135 C -1.66 126.15 100.83 120.49 220 120 M 0 135 C -0.82 125.78 98.65 121.81 220 120 M 220 120 C 342.11 120.75 442.68 128.1 440 135 M 220 120 C 341.38 120.42 438.54 130.69 440 135 M 440 135 C 439.77 160.34 439.68 182.05 440 255 M 440 135 C 438.73 162.22 439.39 187.49 440 255 M 440 255 C 440.71 259.82 338.66 268.29 220 270 M 440 255 C 439.25 265.92 340.42 271.11 220 270 M 220 270 C 100.02 273.07 2.79 261.66 0 255 M 220 270 C 102.12 267.97 0.5 263.55 0 255 M 0 255 C 5.84 209.64 -0.51 158.54 0 135 M 0 255 C 2.06 223.77 2.74 190.17 0 135" fill="none" stroke="currentColor" stroke-linejoin="round" stroke-linecap="round" stroke-miterlimit="10" pointer-events="all"/>
                        <path d="M 440 135 C 438.34 142.71 343.83 150.49 220 150 M 440 135 C 439.18 142.34 341.65 151.81 220 150 M 220 150 C 99.11 150.75 2.68 144.66 0 135 M 220 150 C 98.38 150.42 -1.46 147.25 0 135" fill="none" stroke="currentColor" stroke-linejoin="round" stroke-linecap="round" stroke-miterlimit="10" pointer-events="all"/>
                    </g>
                </g>
                <g>
                    <g>
                        <path d="M 265 170 C 291.64 167.69 324.41 168.93 375 170 M 265 170 C 287.99 169.38 313 167.3 375 170 M 375 170 C 372.25 178.81 373.11 197.2 375 210 M 375 170 C 375.9 183.88 375.65 193.07 375 210 M 375 210 C 343.19 210.21 305.77 207.4 265 210 M 375 210 C 330.42 212.79 289.29 212.22 265 210 M 265 210 C 261.55 200.66 267.2 181.44 265 170 M 265 210 C 265.13 195.12 266.16 182.01 265 170" fill="none" stroke="currentColor" stroke-linejoin="round" stroke-linecap="square" stroke-miterlimit="10" pointer-events="none"/>
                        <path d="M 265 184 C 272.51 181.37 286.15 182.61 301 184 M 265 184 C 272.35 184.55 281.71 182.47 301 184 M 301 184 C 309.68 180.34 322.07 186.58 339 184 M 301 184 C 313.34 186.07 324.46 183.31 339 184 M 339 184 C 353.82 183.16 363.03 180.35 375 184 M 339 184 C 352.58 185.5 369.61 184.92 375 184" fill="none" stroke="currentColor" stroke-linejoin="round" stroke-miterlimit="10" pointer-events="none"/>
                        <path d="M 265 197 C 272.51 194.37 286.15 195.61 301 197 M 265 197 C 272.35 197.55 281.71 195.47 301 197 M 301 197 C 309.68 193.34 322.07 199.58 339 197 M 301 197 C 313.34 199.07 324.46 196.31 339 197 M 339 197 C 353.82 196.16 363.03 193.35 375 197 M 339 197 C 352.58 198.5 369.61 197.92 375 197" fill="none" stroke="currentColor" stroke-linejoin="round" stroke-miterlimit="10" pointer-events="none"/>
                        <path d="M 301 170 C 299.75 171.67 302.79 176.16 301 184 M 301 170 C 300.89 173.74 302.12 175.25 301 184 M 301 184 C 299.18 185.78 299.74 193.79 301 197 M 301 184 C 301.61 189.14 301.45 191.22 301 197 M 301 197 C 303.41 200.78 301.92 203.1 301 210 M 301 197 C 300.26 203.36 302.01 208.17 301 210" fill="none" stroke="currentColor" stroke-linejoin="round" stroke-miterlimit="10" pointer-events="none"/>
                        <path d="M 339 170 C 337.75 171.67 340.79 176.16 339 184 M 339 170 C 338.89 173.74 340.12 175.25 339 184 M 339 184 C 337.18 185.78 337.74 193.79 339 197 M 339 184 C 339.61 189.14 339.45 191.22 339 197 M 339 197 C 341.41 200.78 339.92 203.1 339 210 M 339 197 C 338.26 203.36 340.01 208.17 339 210" fill="none" stroke="currentColor" stroke-linejoin="round" stroke-miterlimit="10" pointer-events="none"/>
                    </g>
                    <g>
                        <g/>
                        <g>
                            <g>
                                <rect x="265" y="170" width="36" height="14" fill="none" stroke="none" pointer-events="all"/>
                                <path d="M 265 170 M 301 170 M 301 184 M 265 184" fill="none" stroke="currentColor" stroke-linecap="square" stroke-miterlimit="10" pointer-events="all"/>
                            </g>
                        </g>
                        <g>
                            <g>
                                <rect x="301" y="170" width="38" height="14" fill="none" stroke="none" pointer-events="all"/>
                                <path d="M 301 170 M 339 170 M 339 184 M 301 184" fill="none" stroke="currentColor" stroke-linecap="square" stroke-miterlimit="10" pointer-events="all"/>
                            </g>
                        </g>
                        <g>
                            <g>
                                <rect x="339" y="170" width="36" height="14" fill="none" stroke="none" pointer-events="all"/>
                                <path d="M 339 170 M 375 170 M 375 184 M 339 184" fill="none" stroke="currentColor" stroke-linecap="square" stroke-miterlimit="10" pointer-events="all"/>
                            </g>
                        </g>
                    </g>
                    <g>
                        <g/>
                        <g>
                            <g>
                                <rect x="265" y="184" width="36" height="13" fill="none" stroke="none" pointer-events="all"/>
                                <path d="M 265 184 M 301 184 M 301 197 M 265 197" fill="none" stroke="currentColor" stroke-linecap="square" stroke-miterlimit="10" pointer-events="all"/>
                            </g>
                        </g>
                        <g>
                            <g>
                                <rect x="301" y="184" width="38" height="13" fill="none" stroke="none" pointer-events="all"/>
                                <path d="M 301 184 M 339 184 M 339 197 M 301 197" fill="none" stroke="currentColor" stroke-linecap="square" stroke-miterlimit="10" pointer-events="all"/>
                            </g>
                        </g>
                        <g>
                            <g>
                                <rect x="339" y="184" width="36" height="13" fill="none" stroke="none" pointer-events="all"/>
                                <path d="M 339 184 M 375 184 M 375 197 M 339 197" fill="none" stroke="currentColor" stroke-linecap="square" stroke-miterlimit="10" pointer-events="all"/>
                            </g>
                        </g>
                    </g>
                    <g>
                        <g/>
                        <g>
                            <g>
                                <rect x="265" y="197" width="36" height="13" fill="none" stroke="none" pointer-events="all"/>
                                <path d="M 265 197 M 301 197 M 301 210 M 265 210" fill="none" stroke="currentColor" stroke-linecap="square" stroke-miterlimit="10" pointer-events="all"/>
                            </g>
                        </g>
                        <g>
                            <g>
                                <rect x="301" y="197" width="38" height="13" fill="none" stroke="none" pointer-events="all"/>
                                <path d="M 301 197 M 339 197 M 339 210 M 301 210" fill="none" stroke="currentColor" stroke-linecap="square" stroke-miterlimit="10" pointer-events="all"/>
                            </g>
                        </g>
                        <g>
                            <g>
                                <rect x="339" y="197" width="36" height="13" fill="none" stroke="none" pointer-events="all"/>
                                <path d="M 339 197 M 375 197 M 375 210 M 339 210" fill="none" stroke="currentColor" stroke-linecap="square" stroke-miterlimit="10" pointer-events="all"/>
                            </g>
                        </g>
                    </g>
                </g>
                <g>
                    <g>
                        <path d="M 60 170 C 87.27 169.62 109.15 172.99 170 170 M 60 170 C 89.56 172.65 118.14 170.7 170 170 M 170 170 C 172.37 180.15 169.98 187.88 170 210 M 170 170 C 170.08 182.98 172.47 196.91 170 210 M 170 210 C 136.82 208.18 97.97 213.17 60 210 M 170 210 C 129.22 211.44 88.81 208.95 60 210 M 60 210 C 56.38 194.17 63.44 182.95 60 170 M 60 210 C 60.94 196.02 58.24 183.28 60 170" fill="none" stroke="currentColor" stroke-linejoin="round" stroke-linecap="square" stroke-miterlimit="10" pointer-events="none"/>
                        <path d="M 60 184 C 71.48 183 77.57 186.37 96 184 M 60 184 C 70.41 185.95 79.85 184 96 184 M 96 184 C 106.63 185.48 112.48 184.54 134 184 M 96 184 C 108.73 183.7 124.28 183.77 134 184 M 134 184 C 147.24 179.64 154.8 184.62 170 184 M 134 184 C 146.81 185.26 159.99 182.77 170 184" fill="none" stroke="currentColor" stroke-linejoin="round" stroke-miterlimit="10" pointer-events="none"/>
                        <path d="M 60 197 C 71.48 196 77.57 199.37 96 197 M 60 197 C 70.41 198.95 79.85 197 96 197 M 96 197 C 106.63 198.48 112.48 197.54 134 197 M 96 197 C 108.73 196.7 124.28 196.77 134 197 M 134 197 C 147.24 192.64 154.8 197.62 170 197 M 134 197 C 146.81 198.26 159.99 195.77 170 197" fill="none" stroke="currentColor" stroke-linejoin="round" stroke-miterlimit="10" pointer-events="none"/>
                        <path d="M 96 170 C 98.46 172.08 97.35 177.42 96 184 M 96 170 C 96.7 174.75 96.79 177.01 96 184 M 96 184 C 97.55 187.78 95.99 189.98 96 197 M 96 184 C 95.88 187.93 97.44 192.49 96 197 M 96 197 C 97.04 198.71 94.52 206.08 96 210 M 96 197 C 95.91 202.62 95.89 205.77 96 210" fill="none" stroke="currentColor" stroke-linejoin="round" stroke-miterlimit="10" pointer-events="none"/>
                        <path d="M 134 170 C 136.46 172.08 135.35 177.42 134 184 M 134 170 C 134.7 174.75 134.79 177.01 134 184 M 134 184 C 135.55 187.78 133.99 189.98 134 197 M 134 184 C 133.88 187.93 135.44 192.49 134 197 M 134 197 C 135.04 198.71 132.52 206.08 134 210 M 134 197 C 133.91 202.62 133.89 205.77 134 210" fill="none" stroke="currentColor" stroke-linejoin="round" stroke-miterlimit="10" pointer-events="none"/>
                    </g>
                    <g>
                        <g/>
                        <g>
                            <g>
                                <rect x="60" y="170" width="36" height="14" fill="none" stroke="none" pointer-events="all"/>
                                <path d="M 60 170 M 96 170 M 96 184 M 60 184" fill="none" stroke="currentColor" stroke-linecap="square" stroke-miterlimit="10" pointer-events="all"/>
                            </g>
                        </g>
                        <g>
                            <g>
                                <rect x="96" y="170" width="38" height="14" fill="none" stroke="none" pointer-events="all"/>
                                <path d="M 96 170 M 134 170 M 134 184 M 96 184" fill="none" stroke="currentColor" stroke-linecap="square" stroke-miterlimit="10" pointer-events="all"/>
                            </g>
                        </g>
                        <g>
                            <g>
                                <rect x="134" y="170" width="36" height="14" fill="none" stroke="none" pointer-events="all"/>
                                <path d="M 134 170 M 170 170 M 170 184 M 134 184" fill="none" stroke="currentColor" stroke-linecap="square" stroke-miterlimit="10" pointer-events="all"/>
                            </g>
                        </g>
                    </g>
                    <g>
                        <g/>
                        <g>
                            <g>
                                <rect x="60" y="184" width="36" height="13" fill="none" stroke="none" pointer-events="all"/>
                                <path d="M 60 184 M 96 184 M 96 197 M 60 197" fill="none" stroke="currentColor" stroke-linecap="square" stroke-miterlimit="10" pointer-events="all"/>
                            </g>
                        </g>
                        <g>
                            <g>
                                <rect x="96" y="184" width="38" height="13" fill="none" stroke="none" pointer-events="all"/>
                                <path d="M 96 184 M 134 184 M 134 197 M 96 197" fill="none" stroke="currentColor" stroke-linecap="square" stroke-miterlimit="10" pointer-events="all"/>
                            </g>
                        </g>
                        <g>
                            <g>
                                <rect x="134" y="184" width="36" height="13" fill="none" stroke="none" pointer-events="all"/>
                                <path d="M 134 184 M 170 184 M 170 197 M 134 197" fill="none" stroke="currentColor" stroke-linecap="square" stroke-miterlimit="10" pointer-events="all"/>
                            </g>
                        </g>
                    </g>
                    <g>
                        <g/>
                        <g>
                            <g>
                                <rect x="60" y="197" width="36" height="13" fill="none" stroke="none" pointer-events="all"/>
                                <path d="M 60 197 M 96 197 M 96 210 M 60 210" fill="none" stroke="currentColor" stroke-linecap="square" stroke-miterlimit="10" pointer-events="all"/>
                            </g>
                        </g>
                        <g>
                            <g>
                                <rect x="96" y="197" width="38" height="13" fill="none" stroke="none" pointer-events="all"/>
                                <path d="M 96 197 M 134 197 M 134 210 M 96 210" fill="none" stroke="currentColor" stroke-linecap="square" stroke-miterlimit="10" pointer-events="all"/>
                            </g>
                        </g>
                        <g>
                            <g>
                                <rect x="134" y="197" width="36" height="13" fill="none" stroke="none" pointer-events="all"/>
                                <path d="M 134 197 M 170 197 M 170 210 M 134 210" fill="none" stroke="currentColor" stroke-linecap="square" stroke-miterlimit="10" pointer-events="all"/>
                            </g>
                        </g>
                    </g>
                </g>
                <g>
                    <g>
                        <rect x="85" y="220" width="60" height="30" fill="none" stroke="none" pointer-events="all"/>
                    </g>
                    <g>
                        <g transform="translate(-0.5 -0.5)">
                            <text x="115" y="240" font-size="16px" text-anchor="middle" font-weight="bold" fill="currentColor" font-family="inherit" dominant-baseline="central">Products</text>
                        </g>
                    </g>
                </g>
                <g>
                    <g>
                        <rect x="290" y="220" width="60" height="30" fill="none" stroke="none" pointer-events="all"/>
                    </g>
                    <g>
                        <g transform="translate(-0.5 -0.5)">
                            <text x="320" y="240" font-size="16px" text-anchor="middle" font-weight="bold" fill="currentColor" font-family="inherit" dominant-baseline="central">Orders</text>
                        </g>
                    </g>
                </g>
                <g>
                    <g>
                        <path d="M 120 60 L 109.89 156.92" fill="none" stroke="none" pointer-events="stroke"/>
                        <path d="M 108.96 165.89 L 104.22 153.31 L 109.89 156.92 L 116.18 154.56 Z" fill="none" stroke="none" pointer-events="all"/>
                        <path d="M 120 60 C 115.42 79.08 111.14 102.27 109.89 156.92 M 120 60 C 116.67 81.19 113.18 107.27 109.89 156.92" fill="none" stroke="currentColor" stroke-linejoin="round" stroke-linecap="round" stroke-miterlimit="10" pointer-events="stroke"/>
                        <path d="M 104.08 153.47 C 104.08 153.47 104.08 153.47 104.08 153.47 M 104.08 153.47 C 104.08 153.47 104.08 153.47 104.08 153.47 M 105.79 157.6 C 106.82 157.29 107.3 156.06 107.76 155.34 M 105.79 157.6 C 106.52 156.6 106.92 156.2 107.76 155.34 M 107.49 161.74 C 109.02 160.38 108.73 157.53 112.09 156.45 M 107.49 161.74 C 108.42 160.49 109.28 160.07 112.09 156.45" fill="none" stroke="currentColor" stroke-width="0.5" stroke-linejoin="round" stroke-linecap="round" stroke-miterlimit="10" pointer-events="all"/>
                        <path d="M 108.96 165.89 C 107.65 162.14 105.21 161.12 104.22 153.31 M 108.96 165.89 C 107.86 161.9 106 161.21 104.22 153.31 M 104.22 153.31 C 105.34 153.45 107.26 155.84 109.89 156.92 M 104.22 153.31 C 105.39 154.47 107.99 155.16 109.89 156.92 M 109.89 156.92 C 112.75 156.14 112.36 156.43 116.18 154.56 M 109.89 156.92 C 111.92 156.67 113.62 156.02 116.18 154.56 M 116.18 154.56 C 115.03 159.93 110.65 160.38 108.96 165.89 M 116.18 154.56 C 112.94 157.18 110.97 162.58 108.96 165.89" fill="none" stroke="currentColor" stroke-linejoin="round" stroke-linecap="round" stroke-miterlimit="10" pointer-events="all"/>
                    </g>
                </g>
                <g>
                    <g>
                        <path d="M 304 62.2 L 133.57 160.34" fill="none" stroke="none" pointer-events="stroke"/>
                        <path d="M 125.76 164.84 L 133.18 153.63 L 133.57 160.34 L 139.18 164.05 Z" fill="none" stroke="none" pointer-events="all"/>
                        <path d="M 304 62.2 C 263.2 81.44 230.32 105.29 133.57 160.34 M 304 62.2 C 249.47 88.05 199.29 119.92 133.57 160.34" fill="none" stroke="currentColor" stroke-linejoin="round" stroke-linecap="round" stroke-miterlimit="10" pointer-events="stroke"/>
                        <path d="M 133.2 153.61 C 133.2 153.61 133.2 153.61 133.2 153.61 M 133.2 153.61 C 133.2 153.61 133.2 153.61 133.2 153.61 M 129 164.53 C 130.86 162.08 131.76 161.61 133.59 159.25 M 129 164.53 C 130.72 162.45 131.71 160.66 133.59 159.25 M 134.64 164.14 C 135.46 163.96 136.15 163.44 136.61 161.87 M 134.64 164.14 C 135.19 163.37 136.18 162.85 136.61 161.87" fill="none" stroke="currentColor" stroke-width="0.5" stroke-linejoin="round" stroke-linecap="round" stroke-miterlimit="10" pointer-events="all"/>
                        <path d="M 125.76 164.84 C 125.45 159.97 129.41 159.52 133.18 153.63 M 125.76 164.84 C 126.92 160.73 130.56 158.51 133.18 153.63 M 133.18 153.63 C 132.84 156.19 132.67 158.71 133.57 160.34 M 133.18 153.63 C 133.58 155.5 133.78 156.84 133.57 160.34 M 133.57 160.34 C 135.54 161.88 136.07 162.08 139.18 164.05 M 133.57 160.34 C 135.03 162.37 137.42 163.19 139.18 164.05 M 139.18 164.05 C 134.87 166.4 135.57 166.17 125.76 164.84 M 139.18 164.05 C 135.55 163.17 132.41 164.83 125.76 164.84" fill="none" stroke="currentColor" stroke-linejoin="round" stroke-linecap="round" stroke-miterlimit="10" pointer-events="all"/>
                    </g>
                </g>
                <g>
                    <g>
                        <path d="M 344.8 62.2 L 344.75 157.67" fill="none" stroke="none" pointer-events="stroke"/>
                        <path d="M 344.75 166.68 L 338.74 154.66 L 344.75 157.67 L 350.77 154.66 Z" fill="none" stroke="none" pointer-events="all"/>
                        <path d="M 344.8 62.2 C 346.47 84.96 347.63 100.64 344.75 157.67 M 344.8 62.2 C 345.13 97.55 346.3 133.91 344.75 157.67" fill="none" stroke="currentColor" stroke-linejoin="round" stroke-linecap="round" stroke-miterlimit="10" pointer-events="stroke"/>
                        <path d="M 338.71 154.7 C 338.71 154.7 338.71 154.7 338.71 154.7 M 338.71 154.7 C 338.71 154.7 338.71 154.7 338.71 154.7 M 340.41 158.83 C 340.58 158.61 341.67 157.5 342.38 156.57 M 340.41 158.83 C 341.06 158.12 341.51 157.6 342.38 156.57 M 342.78 162.21 C 344.86 159.94 345.57 160.34 347.37 156.93 M 342.78 162.21 C 343.46 161.09 344.93 160.17 347.37 156.93 M 344.48 166.35 C 346.02 164.7 346.75 163.75 347.76 162.57 M 344.48 166.35 C 345.32 164.99 346.69 163.59 347.76 162.57" fill="none" stroke="currentColor" stroke-width="0.5" stroke-linejoin="round" stroke-linecap="round" stroke-miterlimit="10" pointer-events="all"/>
                        <path d="M 344.75 166.68 C 345.39 165.67 344.89 159.94 338.74 154.66 M 344.75 166.68 C 342.94 161.58 341.47 157.19 338.74 154.66 M 338.74 154.66 C 339.9 154.99 343.5 155.65 344.75 157.67 M 338.74 154.66 C 339.91 155.28 342.19 156.68 344.75 157.67 M 344.75 157.67 C 346.27 158.41 348 155.38 350.77 154.66 M 344.75 157.67 C 346.27 156.35 347.19 155.68 350.77 154.66 M 350.77 154.66 C 350.58 161.17 347.48 162.29 344.75 166.68 M 350.77 154.66 C 350.15 158.84 346.92 160.18 344.75 166.68" fill="none" stroke="currentColor" stroke-linejoin="round" stroke-linecap="round" stroke-miterlimit="10" pointer-events="all"/>
                    </g>
                </g>
            </g>
        </g>
    </g>
</svg>
