<svg xmlns="http://www.w3.org/2000/svg" version="1.1" width="600px" height="222px" viewBox="-0.5 -0.5 600 222">
    <title>Vertical scaling, replacing a small server with a bigger one, versus horizontal scaling, adding more servers of the same size</title>
    <g>
        <rect x="1" y="101" width="50" height="80" fill="none" stroke="currentColor" stroke-width="2"/>
        <rect x="10" y="110.6" width="32" height="28.8" fill="none" stroke="currentColor" stroke-width="2"/>
        <path d="M 10 120.2 L 42 120.2" fill="none" stroke="currentColor" stroke-width="2"/>
        <path d="M 10 129.8 L 42 129.8" fill="none" stroke="currentColor" stroke-width="2"/>
        <path d="M 16 158.6 L 36 158.6" fill="none" stroke="currentColor" stroke-width="2"/>
        <path d="M 62.8 150.1 L 111.2 125.9" fill="none" stroke="currentColor" stroke-width="2"/>
        <path d="M 119.2 121.9 L 112.5 130.8 L 108 121.9 Z" fill="currentColor" stroke="none"/>
        <rect x="131" y="31" width="100" height="150" fill="none" stroke="currentColor" stroke-width="2"/>
        <rect x="149" y="49" width="64" height="54" fill="none" stroke="currentColor" stroke-width="2"/>
        <path d="M 149 67 L 213 67" fill="none" stroke="currentColor" stroke-width="2"/>
        <path d="M 149 85 L 213 85" fill="none" stroke="currentColor" stroke-width="2"/>
        <path d="M 161 139 L 201 139" fill="none" stroke="currentColor" stroke-width="2"/>
        <text x="116" y="211" text-anchor="middle" dominant-baseline="central" font-size="14" font-family="inherit" font-weight="bold" fill="currentColor">Vertical Scaling</text>
        <path d="M 271 1 L 271 221" fill="none" stroke="currentColor" stroke-width="2"/>
        <rect x="301" y="51" width="70" height="110" fill="none" stroke="currentColor" stroke-width="2"/>
        <rect x="313.6" y="64.2" width="44.8" height="39.6" fill="none" stroke="currentColor" stroke-width="2"/>
        <path d="M 313.6 77.4 L 358.4 77.4" fill="none" stroke="currentColor" stroke-width="2"/>
        <path d="M 313.6 90.6 L 358.4 90.6" fill="none" stroke="currentColor" stroke-width="2"/>
        <path d="M 322 130.2 L 350 130.2" fill="none" stroke="currentColor" stroke-width="2"/>
        <rect x="411" y="51" width="70" height="110" fill="none" stroke="currentColor" stroke-width="2"/>
        <rect x="423.6" y="64.2" width="44.8" height="39.6" fill="none" stroke="currentColor" stroke-width="2"/>
        <path d="M 423.6 77.4 L 468.4 77.4" fill="none" stroke="currentColor" stroke-width="2"/>
        <path d="M 423.6 90.6 L 468.4 90.6" fill="none" stroke="currentColor" stroke-width="2"/>
        <path d="M 432 130.2 L 460 130.2" fill="none" stroke="currentColor" stroke-width="2"/>
        <rect x="521" y="51" width="70" height="110" fill="none" stroke="currentColor" stroke-width="2"/>
        <rect x="533.6" y="64.2" width="44.8" height="39.6" fill="none" stroke="currentColor" stroke-width="2"/>
        <path d="M 533.6 77.4 L 578.4 77.4" fill="none" stroke="currentColor" stroke-width="2"/>
        <path d="M 533.6 90.6 L 578.4 90.6" fill="none" stroke="currentColor" stroke-width="2"/>
        <path d="M 542 130.2 L 570 130.2" fill="none" stroke="currentColor" stroke-width="2"/>
        <path d="M 301 186 L 582 186" fill="none" stroke="currentColor" stroke-width="2"/>
        <path d="M 591 186 L 581 191 L 581 181 Z" fill="currentColor" stroke="none"/>
        <text x="446" y="211" text-anchor="middle" dominant-baseline="central" font-size="14" font-family="inherit" font-weight="bold" fill="currentColor">Horizontal Scaling</text>
    </g>
</svg>
