<?xml version="1.0" encoding="UTF-8"?>
<!DOCTYPE svg PUBLIC "-//W3C//DTD SVG 1.1//EN" "http://www.w3.org/Graphics/SVG/1.1/DTD/svg11.dtd">
<svg xmlns="http://www.w3.org/2000/svg" xmlns:xlink="http://www.w3.org/1999/xlink" version="1.1" width="369px" height="398px" viewBox="-0.5 -0.5 369 398"><defs/><g><g data-cell-id="0"><g data-cell-id="1"><g data-cell-id="fGU3WEagON-DqYOOjsWN-108"><g><path d="M 66.26 155.78 L 65.93 159.35 L 65.66 163.1 L 65.41 167.12 L 65.16 171.24 L 64.8 175.45 L 64.31 179.49 L 63.77 183.29 L 63.23 186.77 L 62.82 189.82 L 62.59 192.45 L 62.56 196.85 L 62.66 200.63 L 62.76 204.37 L 62.81 209.17 L 62.82 211.71 L 63.12 216.36 L 63.8 220.11 L 64.46 223.3 L 65.34 226.23 L 66.53 229.8 L 67.65 234.22 L 68.51 238.4 L 69.34 242.06 L 70.08 245.69 L 70.34 248.87 L 70.41 251.86 L 70.44 255.07 L 70.47 257.84 L 70.53 260.93 L 70.6 264.21 L 70.61 267.41 L 70.45 268.37 L 70 269.23 L 69.29 269.9 L 68.41 270.31 L 67.44 270.42 L 66.49 270.21 L 65.65 269.71 L 65.02 268.96 L 64.66 268.06 L 64.6 267.08 L 64.87 266.15 L 65.41 265.34 L 66.19 264.75 L 67.11 264.43 L 68.09 264.43 L 69.01 264.75 L 69.79 265.34 L 70.33 266.15 L 70.59 267.08 L 70.54 268.06 L 70.18 268.96 L 69.55 269.71 L 68.71 270.21 L 67.76 270.42 L 66.79 270.31 L 65.91 269.9 L 65.2 269.23 L 64.74 268.37 L 64.59 267.41 L 64.59 267.41 L 64.64 262.6 L 64.69 260.02 L 64.75 256.53 L 64.78 253.57 L 64.79 250.41 L 64.77 247.79 L 64.46 245.05 L 63.68 241.39 L 62.87 237.51 L 61.99 233.38 L 60.87 229.5 L 59.78 226.04 L 59.09 222.71 L 58.53 218.99 L 58.09 214.4 L 57.98 211.71 L 58.01 206.68 L 58.09 202.44 L 58.23 198.73 L 58.46 194.5 L 58.68 191.98 L 59.08 189.24 L 59.62 186.16 L 60.24 182.76 L 60.8 179.07 L 61.27 175.18 L 61.55 171.05 L 61.73 166.92 L 61.92 162.85 L 62.18 158.98 L 62.54 155.43 L 62.64 154.98 L 62.84 154.57 L 63.13 154.24 L 63.49 153.97 L 63.91 153.8 L 64.35 153.73 L 64.8 153.78 L 65.23 153.93 L 65.6 154.18 L 65.91 154.5 L 66.13 154.9 L 66.25 155.33 L 66.26 155.78 L 66.26 155.78" fill="rgb(0, 0, 0)" stroke="rgb(0, 0, 0)" stroke-miterlimit="10" pointer-events="all"/></g></g><g data-cell-id="fGU3WEagON-DqYOOjsWN-109"><g><path d="M 42.8 203.37 L 50.93 203.53 L 56.6 203.64 L 63.5 203.73 L 68.62 203.79 L 71.83 203.66 L 75.05 203.43 L 81.19 204.03 L 81.74 204.37 L 82.15 204.86 L 82.38 205.45 L 82.41 206.09 L 82.23 206.7 L 81.87 207.22 L 81.36 207.61 L 80.75 207.8 L 80.11 207.8 L 79.51 207.59 L 79.01 207.2 L 78.65 206.67 L 78.49 206.05 L 78.53 205.42 L 78.77 204.83 L 79.19 204.34 L 79.74 204.02 L 80.36 203.89 L 80.99 203.96 L 81.57 204.24 L 82.03 204.68 L 82.32 205.24 L 82.42 205.87 L 82.31 206.5 L 82.01 207.06 L 81.54 207.5 L 80.96 207.76 L 80.32 207.82 L 79.7 207.68 L 79.71 207.68 L 75.05 206.97 L 71.83 206.74 L 68.62 206.61 L 63.5 206.67 L 56.6 206.76 L 50.93 206.87 L 42.8 207.03 L 42.36 206.98 L 41.95 206.82 L 41.59 206.57 L 41.29 206.24 L 41.09 205.85 L 40.98 205.42 L 40.98 204.98 L 41.09 204.55 L 41.29 204.16 L 41.59 203.83 L 41.95 203.58 L 42.36 203.42 L 42.8 203.37 L 42.8 203.37" fill="rgb(0, 0, 0)" stroke="rgb(0, 0, 0)" stroke-miterlimit="10" pointer-events="all"/></g></g><g data-cell-id="fGU3WEagON-DqYOOjsWN-110"><g><path d="M 69.57 156.38 L 69.94 156.9 L 70.13 157.51 L 70.11 158.15 L 69.89 158.75 L 69.49 159.24 L 68.95 159.59 L 68.34 159.74 L 67.7 159.69 L 67.11 159.44 L 66.64 159.01 L 66.32 158.45 L 66.2 157.83 L 66.29 157.2 L 66.57 156.62 L 67.02 156.17 L 67.6 155.89 L 68.23 155.8 L 68.86 155.92 L 69.41 156.24 L 69.84 156.71 L 70.09 157.3 L 70.14 157.94 L 69.99 158.55 L 69.64 159.09 L 69.15 159.49 L 68.55 159.71 L 67.91 159.73 L 67.3 159.54 L 66.78 159.17 L 66.78 159.17 L 66.33 158.92 L 65.96 158.56 L 65.68 158.13 L 65.51 157.64 L 65.47 157.13 L 65.55 156.62 L 65.74 156.15 L 66.05 155.74 L 66.44 155.41 L 66.91 155.18 L 67.41 155.08 L 67.92 155.09 L 68.42 155.23" fill="rgb(0, 0, 0)" stroke="rgb(0, 0, 0)" stroke-miterlimit="10" pointer-events="all"/></g></g><g data-cell-id="fGU3WEagON-DqYOOjsWN-111"><g><path d="M 67.27 155.05 L 70.26 154.58 L 72.83 154.32 L 76.87 154.09 L 79.43 154.1 L 83.47 154.67 L 84.27 154.82 L 84.98 155.22 L 85.53 155.82 L 85.86 156.56 L 85.93 157.37 L 85.74 158.16 L 85.31 158.85 L 84.67 159.37 L 83.91 159.66 L 83.1 159.69 L 82.32 159.45 L 81.65 158.98 L 81.17 158.33 L 80.93 157.55 L 80.94 156.73 L 81.22 155.97 L 81.72 155.33 L 82.41 154.89 L 83.19 154.68 L 84.01 154.74 L 84.76 155.06 L 85.37 155.6 L 85.77 156.3 L 85.93 157.1 L 85.83 157.91 L 85.47 158.64 L 84.9 159.22 L 84.18 159.59 L 83.37 159.7 L 83.37 159.7 L 78.26 158.81 L 75.28 158.74 L 70.92 158.9 L 67.93 159.35 L 67.41 159.37 L 66.89 159.26 L 66.42 159.03 L 66.02 158.69 L 65.71 158.27 L 65.51 157.79 L 65.43 157.27 L 65.47 156.75 L 65.64 156.25 L 65.93 155.81 L 66.31 155.45 L 66.77 155.19 L 67.27 155.05 L 67.27 155.05" fill="rgb(0, 0, 0)" stroke="rgb(0, 0, 0)" stroke-miterlimit="10" pointer-events="all"/></g></g><g data-cell-id="fGU3WEagON-DqYOOjsWN-112"><g><path d="M 73.57 263.58 L 73.94 264.1 L 74.13 264.71 L 74.11 265.35 L 73.89 265.95 L 73.49 266.44 L 72.95 266.79 L 72.34 266.94 L 71.7 266.89 L 71.11 266.64 L 70.64 266.21 L 70.32 265.65 L 70.2 265.03 L 70.29 264.4 L 70.57 263.82 L 71.02 263.37 L 71.6 263.09 L 72.23 263 L 72.86 263.12 L 73.41 263.44 L 73.84 263.91 L 74.09 264.5 L 74.14 265.14 L 73.99 265.75 L 73.64 266.29 L 73.15 266.69 L 72.55 266.91 L 71.91 266.93 L 71.3 266.74 L 70.78 266.37 L 70.78 266.37 L 70.33 266.12 L 69.96 265.76 L 69.68 265.33 L 69.51 264.84 L 69.47 264.33 L 69.55 263.82 L 69.74 263.35 L 70.05 262.94 L 70.44 262.61 L 70.91 262.38 L 71.41 262.28 L 71.92 262.29 L 72.42 262.43" fill="rgb(0, 0, 0)" stroke="rgb(0, 0, 0)" stroke-miterlimit="10" pointer-events="all"/></g></g><g data-cell-id="fGU3WEagON-DqYOOjsWN-113"><g><path d="M 71.6 262.35 L 74.13 262.29 L 78.93 261.88 L 79.66 261.93 L 80.33 262.21 L 80.88 262.69 L 81.25 263.31 L 81.39 264.03 L 81.31 264.75 L 80.99 265.41 L 80.49 265.93 L 79.84 266.26 L 79.12 266.37 L 78.4 266.24 L 77.76 265.9 L 77.27 265.36 L 76.97 264.7 L 76.9 263.97 L 77.07 263.26 L 77.45 262.64 L 78.01 262.18 L 78.69 261.92 L 79.42 261.89 L 80.12 262.09 L 80.71 262.51 L 81.15 263.09 L 81.37 263.78 L 81.36 264.51 L 81.12 265.2 L 80.67 265.77 L 80.07 266.17 L 79.36 266.36 L 79.36 266.36 L 74.13 266.51 L 71.6 266.45 L 71.11 266.39 L 70.65 266.21 L 70.24 265.93 L 69.91 265.56 L 69.68 265.13 L 69.57 264.65 L 69.57 264.15 L 69.68 263.67 L 69.91 263.24 L 70.24 262.87 L 70.65 262.59 L 71.11 262.41 L 71.6 262.35 L 71.6 262.35" fill="rgb(0, 0, 0)" stroke="rgb(0, 0, 0)" stroke-miterlimit="10" pointer-events="all"/></g></g><g data-cell-id="fGU3WEagON-DqYOOjsWN-114"><g><path d="M 87.83 131.71 L 89.1 135.05 L 89.81 139.37 L 89.92 143.94 L 89.57 148.48 L 89.1 152.5 L 88.61 155.88 L 88.1 158.64 L 87.66 162.54 L 87.5 165.72 L 87.57 168.73 L 90.06 168.99 L 92.77 169.05 L 95.57 168.99 L 98.12 168.85 L 101.54 168.42 L 105.02 168.16 L 107.61 168.08 L 110.26 168.03 L 112.82 167.74 L 115.62 167.15 L 119.31 167.04 L 122.45 166.91 L 120.61 165.18 L 120.63 161.09 L 120.65 157.64 L 120.96 153.75 L 121.41 149.27 L 121.28 145.45 L 120.92 142.94 L 120.02 140.05 L 119.02 137.64 L 117 132.86 L 116.84 131.9 L 116.99 130.94 L 117.44 130.08 L 118.14 129.41 L 119.02 129 L 119.98 128.89 L 120.93 129.1 L 121.76 129.6 L 122.4 130.33 L 122.76 131.23 L 122.82 132.2 L 122.56 133.13 L 122.02 133.94 L 121.25 134.53 L 120.33 134.84 L 119.36 134.85 L 118.44 134.54 L 117.67 133.96 L 117.12 133.16 L 116.85 132.23 L 116.9 131.25 L 117.26 130.35 L 117.88 129.61 L 118.72 129.11 L 119.66 128.89 L 120.62 129 L 121.51 129.4 L 122.22 130.07 L 122.67 130.92 L 122.67 130.92 L 123.96 134.02 L 125.31 137.43 L 126.35 140.21 L 126.75 143.42 L 127.06 147.22 L 126.95 152.06 L 126.66 156.08 L 126.56 159.3 L 126.61 163.05 L 126.72 166.61 L 126.41 170.53 L 123.15 172.86 L 119.34 172.97 L 116.1 172.97 L 113.31 173.49 L 110.26 173.57 L 107.63 173.52 L 105.1 173.47 L 102.16 173.47 L 98.42 173.79 L 95.73 173.95 L 92.71 174.09 L 87.38 173.96 L 83.46 171.78 L 82.86 168.67 L 83.05 165.45 L 83.53 161.94 L 84.35 157.83 L 84.99 155.28 L 85.58 152.09 L 86.04 148.26 L 86.25 144.07 L 86.03 139.99 L 85.43 136.42 L 84.16 133.1 L 84.05 132.64 L 84.05 132.16 L 84.16 131.71 L 84.38 131.29 L 84.7 130.93 L 85.09 130.66 L 85.53 130.49 L 86 130.44 L 86.47 130.49 L 86.91 130.66 L 87.3 130.93 L 87.62 131.29 L 87.83 131.71 L 87.83 131.71" fill="rgb(0, 0, 0)" stroke="rgb(0, 0, 0)" stroke-miterlimit="10" pointer-events="all"/></g></g><g data-cell-id="fGU3WEagON-DqYOOjsWN-115"><g><path d="M 121.57 129.98 L 121.94 130.5 L 122.13 131.11 L 122.11 131.75 L 121.89 132.35 L 121.49 132.84 L 120.95 133.19 L 120.34 133.34 L 119.7 133.29 L 119.11 133.04 L 118.64 132.61 L 118.32 132.05 L 118.2 131.43 L 118.29 130.8 L 118.57 130.22 L 119.02 129.77 L 119.6 129.49 L 120.23 129.4 L 120.86 129.52 L 121.41 129.84 L 121.84 130.31 L 122.09 130.9 L 122.14 131.54 L 121.99 132.15 L 121.64 132.69 L 121.15 133.09 L 120.55 133.31 L 119.91 133.33 L 119.3 133.14 L 118.78 132.77 L 118.78 132.77 L 118.33 132.52 L 117.96 132.16 L 117.68 131.73 L 117.51 131.24 L 117.47 130.73 L 117.55 130.22 L 117.74 129.75 L 118.05 129.34 L 118.44 129.01 L 118.91 128.78 L 119.41 128.68 L 119.92 128.69 L 120.42 128.83" fill="rgb(0, 0, 0)" stroke="rgb(0, 0, 0)" stroke-miterlimit="10" pointer-events="all"/></g></g><g data-cell-id="fGU3WEagON-DqYOOjsWN-116"><g><path d="M 118.22 132.01 L 117.58 131.9 L 117.01 131.6 L 116.56 131.13 L 116.29 130.54 L 116.22 129.89 L 116.36 129.26 L 116.69 128.7 L 117.19 128.28 L 117.79 128.04 L 118.44 128.01 L 119.06 128.18 L 119.6 128.54 L 119.99 129.06 L 120.2 129.68 L 120.2 130.32 L 119.99 130.94 L 119.6 131.46 L 119.06 131.82 L 118.44 131.99 L 117.79 131.96 L 117.19 131.72 L 116.69 131.3 L 116.36 130.74 L 116.22 130.11 L 116.29 129.46 L 116.56 128.87 L 117.01 128.4 L 117.58 128.1 L 118.22 127.99 L 118.22 127.99 L 118.74 127.72 L 119.31 127.58 L 119.9 127.58 L 120.47 127.72 L 120.99 128 L 121.43 128.39 L 121.76 128.87 L 121.97 129.42 L 122.04 130 L 121.96 130.59 L 121.75 131.14 L 121.42 131.62 L 120.98 132.01" fill="rgb(0, 0, 0)" stroke="rgb(0, 0, 0)" stroke-miterlimit="10" pointer-events="all"/></g></g><g data-cell-id="fGU3WEagON-DqYOOjsWN-117"><g><path d="M 98.37 131.58 L 98.74 132.1 L 98.93 132.71 L 98.91 133.35 L 98.69 133.95 L 98.29 134.44 L 97.75 134.79 L 97.13 134.94 L 96.5 134.89 L 95.91 134.64 L 95.44 134.21 L 95.12 133.65 L 95 133.03 L 95.09 132.4 L 95.37 131.82 L 95.82 131.37 L 96.4 131.09 L 97.03 131 L 97.66 131.12 L 98.21 131.44 L 98.64 131.91 L 98.89 132.5 L 98.94 133.14 L 98.79 133.75 L 98.44 134.29 L 97.95 134.69 L 97.35 134.91 L 96.71 134.93 L 96.1 134.74 L 95.58 134.37 L 95.58 134.37 L 95.13 134.12 L 94.76 133.76 L 94.48 133.33 L 94.31 132.84 L 94.27 132.33 L 94.35 131.82 L 94.54 131.35 L 94.85 130.94 L 95.24 130.61 L 95.71 130.38 L 96.21 130.28 L 96.72 130.29 L 97.22 130.43" fill="rgb(0, 0, 0)" stroke="rgb(0, 0, 0)" stroke-miterlimit="10" pointer-events="all"/></g></g><g data-cell-id="fGU3WEagON-DqYOOjsWN-118"><g><path d="M 96.51 130.23 L 98.7 130.29 L 103.49 130.56 L 106.5 130.77 L 109.43 130.86 L 112.06 130.87 L 115.26 130.79 L 117.8 130.66 L 118.4 130.73 L 118.98 130.95 L 119.48 131.3 L 119.89 131.76 L 120.17 132.3 L 120.32 132.9 L 120.32 133.51 L 120.17 134.1 L 119.88 134.64 L 119.48 135.1 L 118.97 135.45 L 118.4 135.67 L 117.79 135.74 L 114.97 136.07 L 112.43 136.25 L 109.64 136.4 L 104.53 136.53 L 103.71 136.41 L 102.97 136.03 L 102.39 135.44 L 102.04 134.7 L 101.94 133.87 L 102.1 133.06 L 102.52 132.35 L 103.14 131.8 L 103.9 131.48 L 104.73 131.43 L 105.53 131.64 L 106.22 132.09 L 106.73 132.74 L 107.01 133.52 L 107.02 134.35 L 106.77 135.14 L 106.28 135.81 L 105.6 136.28 L 104.81 136.51 L 103.98 136.48 L 103.21 136.19 L 102.57 135.66 L 102.13 134.96 L 101.94 134.15 L 102.02 133.33 L 102.35 132.57 L 102.91 131.96 L 103.64 131.56 L 104.45 131.42 L 104.45 131.42 L 109.28 131.31 L 114.51 130.89 L 117.8 130.66 L 118.4 130.73 L 118.98 130.95 L 119.48 131.3 L 119.89 131.76 L 120.17 132.3 L 120.32 132.9 L 120.32 133.51 L 120.17 134.1 L 119.88 134.64 L 119.48 135.1 L 118.97 135.45 L 118.4 135.67 L 117.79 135.74 L 115.24 135.6 L 112 135.48 L 109.31 135.42 L 106.21 135.35 L 103.15 135.16 L 98.47 134.74 L 96.29 134.57 L 95.77 134.48 L 95.29 134.26 L 94.88 133.95 L 94.55 133.54 L 94.34 133.06 L 94.24 132.55 L 94.26 132.03 L 94.42 131.53 L 94.68 131.08 L 95.05 130.7 L 95.5 130.43 L 95.99 130.27 L 96.51 130.23 L 96.51 130.23" fill="rgb(0, 0, 0)" stroke="rgb(0, 0, 0)" stroke-miterlimit="10" pointer-events="all"/></g></g><g data-cell-id="fGU3WEagON-DqYOOjsWN-119"><g><path d="M 102.37 132.38 L 102.74 132.9 L 102.93 133.51 L 102.91 134.15 L 102.69 134.75 L 102.29 135.24 L 101.75 135.59 L 101.13 135.74 L 100.5 135.69 L 99.91 135.44 L 99.44 135.01 L 99.12 134.45 L 99 133.83 L 99.09 133.2 L 99.37 132.62 L 99.82 132.17 L 100.4 131.89 L 101.03 131.8 L 101.66 131.92 L 102.21 132.24 L 102.64 132.71 L 102.89 133.3 L 102.94 133.94 L 102.79 134.55 L 102.44 135.09 L 101.95 135.49 L 101.35 135.71 L 100.71 135.73 L 100.1 135.54 L 99.58 135.17 L 99.58 135.17 L 99.13 134.92 L 98.76 134.56 L 98.48 134.13 L 98.31 133.64 L 98.27 133.13 L 98.35 132.62 L 98.54 132.15 L 98.85 131.74 L 99.24 131.41 L 99.71 131.18 L 100.21 131.08 L 100.72 131.09 L 101.22 131.23" fill="rgb(0, 0, 0)" stroke="rgb(0, 0, 0)" stroke-miterlimit="10" pointer-events="all"/></g></g><g data-cell-id="fGU3WEagON-DqYOOjsWN-120"><g><path d="M 84.16 186.8 L 84.07 190.83 L 84.09 193.92 L 84.15 196.49 L 84.27 200.61 L 84.38 204.21 L 84.56 208.12 L 85.3 211.93 L 86.34 215.65 L 87 218.57 L 87.69 221.14 L 93.3 219.75 L 97.76 219.54 L 101.92 219.29 L 105.4 219.13 L 109.27 218.91 L 112.28 218.74 L 116 218.61 L 118.09 218.17 L 118.92 218 L 119.76 218.11 L 120.52 218.48 L 121.13 219.08 L 121.51 219.83 L 121.63 220.67 L 121.48 221.51 L 121.06 222.25 L 120.44 222.82 L 119.66 223.16 L 118.82 223.24 L 117.99 223.04 L 117.28 222.59 L 116.74 221.93 L 116.44 221.13 L 116.41 220.29 L 116.65 219.48 L 117.14 218.78 L 117.83 218.28 L 118.64 218.03 L 119.48 218.05 L 120.28 218.33 L 120.95 218.86 L 121.41 219.57 L 121.62 220.39 L 121.56 221.23 L 121.23 222.02 L 120.67 222.65 L 119.93 223.07 L 119.93 223.07 L 116.01 223.79 L 112.29 223.66 L 109.37 223.54 L 105.63 223.53 L 102.37 223.74 L 98.26 224.32 L 94.1 225.01 L 90.78 225.65 L 88.25 226.1 L 84.67 225.71 L 82.4 222.43 L 81.84 219.6 L 81.38 216.92 L 80.42 213.02 L 79.67 208.39 L 79.62 204.21 L 79.73 200.61 L 79.85 196.49 L 79.9 193.92 L 79.93 190.83 L 79.83 186.8 L 79.9 186.28 L 80.08 185.79 L 80.38 185.36 L 80.77 185.02 L 81.23 184.77 L 81.74 184.65 L 82.26 184.65 L 82.77 184.77 L 83.23 185.02 L 83.62 185.36 L 83.92 185.79 L 84.1 186.28 L 84.16 186.8 L 84.16 186.8" fill="rgb(0, 0, 0)" stroke="rgb(0, 0, 0)" stroke-miterlimit="10" pointer-events="all"/></g></g><g data-cell-id="fGU3WEagON-DqYOOjsWN-121"><g><path d="M 118.59 219.19 L 120.44 216.44 L 122.92 213.52 L 121.4 210.45 L 120.55 205.24 L 120.45 202.1 L 120.41 199.17 L 120.38 196.54 L 120.3 192.79 L 120.53 190.26 L 121.06 187.26 L 122.09 185.29 L 122.54 184.8 L 123.09 184.44 L 123.72 184.21 L 124.39 184.15 L 125.04 184.24 L 125.66 184.49 L 126.2 184.88 L 126.63 185.39 L 126.92 185.98 L 127.07 186.63 L 127.05 187.3 L 126.88 187.94 L 126.56 188.52 L 124.27 189.7 L 121.15 190.38 L 118.31 190.95 L 115.18 191.5 L 112.31 191.96 L 108.4 192.5 L 105.59 192.66 L 102.29 192.77 L 98.78 192.84 L 95.97 192.74 L 93.08 192.21 L 89.77 192.16 L 88.84 191.99 L 88 191.53 L 87.35 190.84 L 86.96 189.97 L 86.87 189.02 L 87.08 188.09 L 87.59 187.28 L 88.32 186.67 L 89.21 186.33 L 90.16 186.29 L 91.07 186.55 L 91.86 187.1 L 92.42 187.86 L 92.72 188.77 L 92.71 189.72 L 92.39 190.62 L 91.81 191.37 L 91.01 191.9 L 90.09 192.14 L 89.14 192.08 L 88.26 191.72 L 87.54 191.09 L 87.06 190.27 L 86.87 189.34 L 86.98 188.39 L 87.39 187.53 L 88.05 186.85 L 88.9 186.41 L 89.84 186.27 L 89.84 186.27 L 95.98 186.88 L 98.78 187.16 L 101.31 187.2 L 104.29 187.28 L 107.94 187.3 L 111.42 186.91 L 114.14 186.38 L 117.11 185.69 L 122.09 185.29 L 122.54 184.8 L 123.09 184.44 L 123.72 184.21 L 124.38 184.15 L 125.04 184.24 L 125.66 184.49 L 126.2 184.88 L 126.63 185.39 L 126.92 185.98 L 127.07 186.63 L 127.05 187.3 L 126.88 187.94 L 126.56 188.52 L 126 190.02 L 125.31 192.78 L 125.25 196.5 L 125.27 199.07 L 125.35 201.88 L 125.5 204.67 L 126.18 209.09 L 127.11 212.55 L 126.35 216.52 L 124.04 218.84 L 122.21 221.61 L 121.87 222.01 L 121.44 222.32 L 120.96 222.51 L 120.43 222.58 L 119.91 222.53 L 119.42 222.35 L 118.98 222.05 L 118.63 221.67 L 118.37 221.2 L 118.24 220.7 L 118.23 220.17 L 118.35 219.66 L 118.59 219.19 L 118.59 219.19" fill="rgb(0, 0, 0)" stroke="rgb(0, 0, 0)" stroke-miterlimit="10" pointer-events="all"/></g></g><g data-cell-id="fGU3WEagON-DqYOOjsWN-122"><g><path d="M 87.17 187.58 L 87.54 188.1 L 87.73 188.71 L 87.71 189.35 L 87.49 189.95 L 87.09 190.44 L 86.55 190.79 L 85.93 190.94 L 85.3 190.89 L 84.71 190.64 L 84.24 190.21 L 83.92 189.65 L 83.8 189.03 L 83.89 188.4 L 84.17 187.82 L 84.62 187.37 L 85.2 187.09 L 85.83 187 L 86.46 187.12 L 87.01 187.44 L 87.44 187.91 L 87.69 188.5 L 87.74 189.14 L 87.59 189.75 L 87.24 190.29 L 86.75 190.69 L 86.15 190.91 L 85.51 190.93 L 84.9 190.74 L 84.38 190.37 L 84.38 190.37 L 83.93 190.12 L 83.56 189.76 L 83.28 189.33 L 83.11 188.84 L 83.07 188.33 L 83.15 187.82 L 83.34 187.35 L 83.65 186.94 L 84.04 186.61 L 84.51 186.38 L 85.01 186.28 L 85.52 186.29 L 86.02 186.43" fill="rgb(0, 0, 0)" stroke="rgb(0, 0, 0)" stroke-miterlimit="10" pointer-events="all"/></g><g><g fill="rgb(0, 0, 0)" font-family="&quot;Helvetica&quot;" text-anchor="middle" font-size="12px"><text x="84.9" y="193.11">x</text></g></g></g><g data-cell-id="fGU3WEagON-DqYOOjsWN-123"><g><path d="M 87.17 187.58 L 87.54 188.1 L 87.73 188.71 L 87.71 189.35 L 87.49 189.95 L 87.09 190.44 L 86.55 190.79 L 85.93 190.94 L 85.3 190.89 L 84.71 190.64 L 84.24 190.21 L 83.92 189.65 L 83.8 189.03 L 83.89 188.4 L 84.17 187.82 L 84.62 187.37 L 85.2 187.09 L 85.83 187 L 86.46 187.12 L 87.01 187.44 L 87.44 187.91 L 87.69 188.5 L 87.74 189.14 L 87.59 189.75 L 87.24 190.29 L 86.75 190.69 L 86.15 190.91 L 85.51 190.93 L 84.9 190.74 L 84.38 190.37 L 84.38 190.37 L 83.93 190.12 L 83.56 189.76 L 83.28 189.33 L 83.11 188.84 L 83.07 188.33 L 83.15 187.82 L 83.34 187.35 L 83.65 186.94 L 84.04 186.61 L 84.51 186.38 L 85.01 186.28 L 85.52 186.29 L 86.02 186.43" fill="rgb(0, 0, 0)" stroke="rgb(0, 0, 0)" stroke-miterlimit="10" pointer-events="all"/></g></g><g data-cell-id="fGU3WEagON-DqYOOjsWN-124"><g><path d="M 86.8 129.57 L 89.68 129.52 L 92.39 129.48 L 96.27 129.4 L 96.97 129.52 L 97.6 129.85 L 98.09 130.37 L 98.38 131.01 L 98.46 131.72 L 98.31 132.41 L 97.94 133.02 L 97.4 133.48 L 96.74 133.74 L 96.03 133.78 L 95.35 133.59 L 94.76 133.19 L 94.33 132.63 L 94.1 131.95 L 94.1 131.24 L 94.33 130.57 L 94.76 130.01 L 95.35 129.61 L 96.03 129.42 L 96.74 129.46 L 97.4 129.72 L 97.94 130.18 L 98.31 130.79 L 98.46 131.48 L 98.38 132.19 L 98.09 132.83 L 97.6 133.35 L 96.97 133.68 L 96.27 133.8 L 96.27 133.8 L 92.39 133.72 L 89.68 133.68 L 86.8 133.63 L 86.31 133.57 L 85.86 133.4 L 85.45 133.12 L 85.13 132.75 L 84.9 132.32 L 84.78 131.85 L 84.78 131.36 L 84.9 130.88 L 85.13 130.45 L 85.45 130.08 L 85.86 129.8 L 86.31 129.63 L 86.8 129.57 L 86.8 129.57" fill="rgb(0, 0, 0)" stroke="rgb(0, 0, 0)" stroke-miterlimit="10" pointer-events="all"/></g></g><g data-cell-id="fGU3WEagON-DqYOOjsWN-125"><g><path d="M 83.04 242.8 L 82.98 240.96 L 82.92 240.08 L 82.99 239.53 L 83.18 239.02 L 83.49 238.56 L 83.9 238.2 L 84.39 237.94 L 84.93 237.81 L 85.47 237.81 L 86.01 237.94 L 86.49 238.2 L 86.91 238.56 L 87.22 239.02 L 87.42 239.53 L 87.48 240.08 L 87.65 244.04 L 87.71 248.06 L 87.65 251.83 L 87.35 255.54 L 87.12 259.15 L 86.82 262.68 L 86.47 265.94 L 86.4 268.88 L 86.39 272.47 L 86.52 275.33 L 90.54 275.39 L 93.53 275.8 L 96.84 276.29 L 100.12 276.66 L 103.35 276.97 L 106.37 277.11 L 109.6 277.21 L 112.94 277.28 L 116.31 277.33 L 119.39 277.24 L 123.72 276.81 L 125.21 272.52 L 125.56 269.41 L 125.88 266 L 126.02 262.78 L 126.06 260.03 L 125.99 256.36 L 125.9 253.67 L 125.23 250.12 L 124.15 246.33 L 120.22 245.58 L 117.68 245.53 L 114.53 245.43 L 111.12 245.32 L 107.95 245.26 L 105.22 245.24 L 101.84 245.32 L 99.03 245.43 L 95.79 245.55 L 89.91 245.21 L 89.09 244.79 L 88.46 244.14 L 88.06 243.31 L 87.95 242.4 L 88.14 241.51 L 88.6 240.72 L 89.29 240.12 L 90.13 239.77 L 91.05 239.71 L 91.93 239.94 L 92.7 240.45 L 93.26 241.17 L 93.56 242.03 L 93.57 242.95 L 93.29 243.81 L 92.75 244.55 L 91.99 245.07 L 91.11 245.33 L 90.2 245.29 L 89.35 244.96 L 88.64 244.38 L 88.16 243.6 L 87.96 242.71 L 88.04 241.8 L 88.42 240.96 L 89.04 240.29 L 89.84 239.86 L 90.74 239.7 L 91.64 239.83 L 91.64 239.83 L 95.79 240.05 L 99.03 240.16 L 101.84 240.27 L 105.22 240.35 L 107.95 240.35 L 111.12 240.28 L 114.53 240.17 L 117.69 240.08 L 122.26 240.06 L 125.21 240.32 L 127.99 242.21 L 129.09 244.81 L 130.22 249.11 L 130.9 253.67 L 130.8 256.38 L 130.68 260.1 L 130.63 262.92 L 130.57 266.33 L 130.4 269.85 L 130.15 273.34 L 129.67 276.19 L 128.88 278.61 L 125.81 281.15 L 122.11 281.6 L 119.54 281.73 L 116.3 281.86 L 112.92 281.9 L 109.54 281.93 L 106.22 281.95 L 103.01 281.89 L 99.71 281.74 L 96.26 281.57 L 92.94 281.34 L 87.71 280.98 L 84.22 280.48 L 81.67 278.46 L 80.9 275.79 L 80.81 272.45 L 80.85 268.76 L 81.02 265.28 L 81.45 262.09 L 81.8 258.91 L 82.13 255 L 82.52 251.5 L 82.69 248.06 L 82.75 244.04 L 82.92 240.08 L 82.99 239.53 L 83.18 239.02 L 83.49 238.56 L 83.9 238.2 L 84.39 237.94 L 84.93 237.81 L 85.47 237.81 L 86.01 237.94 L 86.49 238.2 L 86.91 238.56 L 87.22 239.02 L 87.42 239.53 L 87.48 240.08 L 87.42 240.96 L 87.36 242.8 L 87.29 243.32 L 87.11 243.8 L 86.82 244.23 L 86.42 244.57 L 85.96 244.82 L 85.46 244.94 L 84.94 244.94 L 84.44 244.82 L 83.98 244.57 L 83.58 244.23 L 83.29 243.8 L 83.11 243.32 L 83.04 242.8 L 83.04 242.8" fill="rgb(0, 0, 0)" stroke="rgb(0, 0, 0)" stroke-miterlimit="10" pointer-events="all"/></g></g><g data-cell-id="fGU3WEagON-DqYOOjsWN-126"><g><path d="M 3.16 177.59 L 5.8 176.97 L 8.31 176.52 L 10.91 176.2 L 13.75 175.94 L 17.13 175.86 L 20.85 175.88 L 24.5 175.91 L 27.66 175.89 L 33.88 176.1 L 34.56 176.36 L 35.11 176.82 L 35.49 177.44 L 35.65 178.14 L 35.58 178.86 L 35.28 179.51 L 34.79 180.04 L 34.15 180.38 L 33.45 180.51 L 32.73 180.4 L 32.09 180.06 L 31.59 179.55 L 31.28 178.89 L 31.2 178.18 L 31.35 177.47 L 31.71 176.85 L 32.26 176.38 L 32.93 176.11 L 33.65 176.06 L 34.34 176.25 L 34.94 176.65 L 35.38 177.22 L 35.62 177.9 L 35.63 178.62 L 35.4 179.3 L 34.97 179.88 L 34.38 180.29 L 33.69 180.49 L 32.96 180.46 L 32.97 180.46 L 27.67 180.12 L 24.52 180.12 L 20.9 180.18 L 17.26 180.28 L 14.12 180.39 L 11.38 180.6 L 6.69 181.08 L 4.04 181.61 L 3.54 181.66 L 3.05 181.58 L 2.59 181.4 L 2.19 181.1 L 1.88 180.72 L 1.66 180.28 L 1.55 179.79 L 1.56 179.3 L 1.7 178.82 L 1.94 178.38 L 2.28 178.02 L 2.69 177.75 L 3.16 177.59 L 3.16 177.59" fill="rgb(0, 0, 0)" stroke="rgb(0, 0, 0)" stroke-miterlimit="10" pointer-events="all"/></g></g><g data-cell-id="fGU3WEagON-DqYOOjsWN-129"><g><path d="M 1.93 184.19 L 4.31 183.85 L 4.48 186.56 L 4.74 190.87 L 5.14 195.5 L 5.58 199.51 L 6.27 202.94 L 6.85 206.42 L 7.08 209.24 L 7.94 212.05 L 12.87 211.88 L 16.04 212.09 L 19.01 212.19 L 21.65 212.23 L 25.92 212.21 L 29.25 212.16 L 32.98 212.14 L 33.83 212.28 L 34.59 212.68 L 35.18 213.31 L 35.54 214.09 L 35.63 214.94 L 35.45 215.78 L 35.01 216.52 L 34.35 217.08 L 33.55 217.39 L 32.69 217.44 L 31.86 217.21 L 31.15 216.73 L 30.63 216.04 L 30.36 215.23 L 30.36 214.37 L 30.63 213.56 L 31.15 212.87 L 31.86 212.39 L 32.7 212.16 L 33.55 212.21 L 34.35 212.52 L 35.01 213.08 L 35.45 213.82 L 35.63 214.66 L 35.54 215.51 L 35.18 216.29 L 34.59 216.92 L 33.83 217.32 L 32.98 217.46 L 32.98 217.46 L 29.25 217.44 L 25.91 217.38 L 21.62 217.35 L 18.94 217.35 L 15.89 217.38 L 12.45 217.4 L 9.46 217.26 L 6.96 217 L 4.55 216.23 L 2.37 213.17 L 1.79 210.67 L 1.61 207.15 L 1.19 203.96 L 0.53 200.03 L 0.18 195.92 L -0.16 191.16 L -0.34 186.31 L 0.21 182.48 L 1.74 180.37 L 5.27 181.41 L 5.55 181.85 L 5.72 182.34 L 5.77 182.87 L 5.69 183.38 L 5.49 183.87 L 5.18 184.29 L 4.78 184.63 L 4.31 184.85 L 3.8 184.96 L 3.27 184.95 L 2.77 184.81 L 2.31 184.55 L 1.93 184.19 L 1.93 184.19" fill="rgb(0, 0, 0)" stroke="rgb(0, 0, 0)" stroke-miterlimit="10" pointer-events="all"/></g></g><g data-cell-id="fGU3WEagON-DqYOOjsWN-130"><g><path d="M 35.91 216.03 L 35.24 212.69 L 34.49 210.03 L 33.78 207.17 L 33.22 204.26 L 32.84 201.33 L 32.78 198.29 L 32.98 195.51 L 33.61 190.7 L 33.89 186.88 L 33.76 184.32 L 36.45 180.19 L 38.94 180.65 L 41.36 181.64 L 42.19 181.91 L 42.89 182.43 L 43.38 183.14 L 43.63 183.98 L 43.59 184.85 L 43.28 185.66 L 42.73 186.33 L 41.99 186.79 L 41.14 186.99 L 40.28 186.9 L 39.48 186.55 L 38.84 185.96 L 38.43 185.2 L 38.27 184.34 L 38.4 183.48 L 38.8 182.71 L 39.42 182.1 L 40.21 181.72 L 41.07 181.62 L 41.92 181.8 L 42.67 182.23 L 43.25 182.89 L 43.58 183.69 L 43.64 184.56 L 43.41 185.4 L 42.94 186.13 L 42.25 186.66 L 41.43 186.95 L 40.56 186.96 L 40.56 186.96 L 36.13 185.02 L 38.84 185.47 L 38.56 189.26 L 37.85 193.66 L 37.26 198.25 L 37.25 200.81 L 37.54 203.48 L 38 206.17 L 38.63 208.91 L 39.38 211.83 L 40.09 215.17 L 40.13 215.68 L 40.05 216.19 L 39.85 216.66 L 39.54 217.07 L 39.14 217.4 L 38.68 217.62 L 38.18 217.72 L 37.66 217.71 L 37.17 217.56 L 36.72 217.31 L 36.35 216.95 L 36.08 216.52 L 35.91 216.03 L 35.91 216.03" fill="rgb(0, 0, 0)" stroke="rgb(0, 0, 0)" stroke-miterlimit="10" pointer-events="all"/></g></g><g data-cell-id="fGU3WEagON-DqYOOjsWN-131"><g><path d="M 139.01 141.79 L 136.61 142.07 L 133.15 143.36 L 130.17 145.02 L 127.56 145.94 L 125.63 142.19 L 128.82 141.28 L 133.64 139.82 L 137.09 138.32 L 141.85 135.97 L 147.77 132.84 L 155.28 128.8 L 163.89 123.93 L 173.1 118.77 L 183.81 112.81 L 194.73 107.17 L 205.51 102.12 L 215.05 97.92 L 221.76 95.1 L 226.04 93.09 L 228.17 91.69 L 231.21 88.59 L 233.62 86.4 L 236.22 84.01 L 241.39 80.16 L 241.98 79.99 L 242.6 80.01 L 243.18 80.23 L 243.65 80.62 L 243.98 81.15 L 244.12 81.75 L 244.06 82.36 L 243.82 82.93 L 243.4 83.38 L 242.85 83.69 L 242.25 83.79 L 241.63 83.7 L 241.09 83.42 L 240.65 82.98 L 240.39 82.42 L 240.3 81.81 L 240.43 81.2 L 240.74 80.67 L 241.21 80.26 L 241.78 80.02 L 242.39 79.98 L 242.99 80.13 L 243.5 80.48 L 243.89 80.96 L 244.1 81.54 L 244.11 82.16 L 243.92 82.75 L 243.55 83.25 L 243.05 83.6 L 243.05 83.6 L 238.68 86.73 L 236 89.13 L 233.53 91.17 L 229.63 94.25 L 227.15 95.47 L 222.76 97.49 L 216.12 100.32 L 206.65 104.54 L 196 109.6 L 185.21 115.28 L 174.57 121.35 L 165.47 126.66 L 156.96 131.77 L 149.64 136.09 L 143.94 139.63 L 139.24 142.69 L 135.57 144.7 L 132.27 146.07 L 129.64 146.73 L 125.96 147.11 L 123.25 146.32 L 124.17 141.34 L 127.08 140.97 L 129.39 140.01 L 133.63 138.17 L 136.17 137.59 L 138.59 137.41 L 139.12 137.42 L 139.64 137.56 L 140.1 137.82 L 140.49 138.18 L 140.78 138.63 L 140.96 139.13 L 141 139.66 L 140.92 140.18 L 140.73 140.67 L 140.41 141.1 L 140 141.44 L 139.53 141.68 L 139.01 141.79 L 139.01 141.79" fill="rgb(0, 0, 0)" stroke="rgb(0, 0, 0)" stroke-miterlimit="10" pointer-events="all"/></g></g><g data-cell-id="fGU3WEagON-DqYOOjsWN-132"><g><path d="M 224.92 70.61 L 228.6 70.02 L 232.64 69.56 L 237.19 69.3 L 242.26 69.3 L 247.17 69.32 L 251.22 69.25 L 254.85 70.47 L 255.86 72.96 L 254.21 77.27 L 251.02 82.35 L 247.35 88.02 L 243.79 93.29 L 240.87 97.39 L 238.91 100.16 L 236.37 103.3 L 232.78 107.22 L 232.26 107.6 L 231.64 107.79 L 231 107.78 L 230.4 107.55 L 229.9 107.15 L 229.55 106.61 L 229.39 105.99 L 229.45 105.35 L 229.7 104.76 L 230.12 104.28 L 230.68 103.96 L 231.31 103.84 L 231.95 103.93 L 232.53 104.21 L 232.98 104.66 L 233.27 105.24 L 233.35 105.88 L 233.23 106.51 L 232.92 107.07 L 232.44 107.49 L 231.85 107.75 L 231.21 107.8 L 230.59 107.65 L 230.05 107.31 L 229.65 106.8 L 229.42 106.2 L 229.4 105.56 L 229.59 104.95 L 229.97 104.43 L 229.97 104.43 L 233.78 100.85 L 236.47 98.31 L 238.55 95.77 L 241.33 91.68 L 244.72 86.37 L 248.16 80.65 L 250.9 75.73 L 251.22 72.39 L 247.21 72.36 L 242.35 72.5 L 237.43 72.76 L 233.07 73.15 L 229.16 73.63 L 225.48 74.19 L 225.04 74.2 L 224.62 74.11 L 224.22 73.92 L 223.89 73.64 L 223.63 73.29 L 223.46 72.89 L 223.39 72.46 L 223.43 72.03 L 223.57 71.62 L 223.81 71.25 L 224.12 70.95 L 224.5 70.73 L 224.92 70.61 L 224.92 70.61" fill="rgb(0, 0, 0)" stroke="rgb(0, 0, 0)" stroke-miterlimit="10" pointer-events="all"/></g></g><g data-cell-id="fGU3WEagON-DqYOOjsWN-133"><g><path d="M 131.5 199.21 L 133.33 197.69 L 137.45 196.66 L 143.52 196.23 L 151.47 195.86 L 161.41 195.5 L 172.09 195.25 L 182.96 195.15 L 194.03 195.13 L 204.23 195.01 L 213.15 194.73 L 220.47 194.27 L 226.32 193.74 L 231.01 193.25 L 235.21 192.85 L 239.34 192.64 L 243.55 192.65 L 247.65 192.74 L 251.3 192.96 L 254.23 193.33 L 257.58 193.96 L 258.12 194.22 L 258.55 194.63 L 258.82 195.16 L 258.91 195.75 L 258.81 196.34 L 258.53 196.86 L 258.09 197.27 L 257.54 197.51 L 256.95 197.57 L 256.38 197.43 L 255.87 197.12 L 255.48 196.66 L 255.26 196.11 L 255.24 195.51 L 255.41 194.94 L 255.75 194.45 L 256.22 194.1 L 256.8 193.91 L 257.39 193.92 L 257.95 194.11 L 258.43 194.48 L 258.75 194.98 L 258.9 195.55 L 258.86 196.15 L 258.64 196.7 L 258.25 197.15 L 257.73 197.45 L 257.15 197.57 L 256.56 197.5 L 256.56 197.5 L 253.65 196.77 L 251.03 196.21 L 247.55 195.85 L 243.51 195.66 L 239.43 195.55 L 235.41 195.61 L 231.26 195.84 L 226.57 196.26 L 220.64 196.82 L 213.23 197.3 L 204.27 197.6 L 194.04 197.75 L 183 197.83 L 172.17 197.99 L 161.53 198.33 L 151.65 198.82 L 143.8 199.35 L 138.11 199.98 L 135.15 200.35 L 133.29 201.59 L 132.99 201.77 L 132.64 201.87 L 132.28 201.88 L 131.92 201.81 L 131.6 201.66 L 131.32 201.43 L 131.1 201.14 L 130.96 200.81 L 130.91 200.46 L 130.94 200.1 L 131.05 199.76 L 131.24 199.46 L 131.5 199.21 L 131.5 199.21" fill="rgb(0, 0, 0)" stroke="rgb(0, 0, 0)" stroke-miterlimit="10" pointer-events="all"/></g></g><g data-cell-id="fGU3WEagON-DqYOOjsWN-134"><g><path d="M 235.59 181.71 L 234.04 179.91 L 232.16 177.17 L 232.54 174.32 L 236.24 173.51 L 240.76 176.35 L 244.14 178.53 L 248.02 180.95 L 252.27 183.6 L 256.18 186 L 259.33 188.03 L 261.61 189.71 L 263.12 191.95 L 260.69 196.65 L 257.55 198.81 L 253.48 201.1 L 249.39 203.21 L 246.08 204.95 L 243.87 206.3 L 243.03 207.88 L 242.68 208.43 L 242.18 208.84 L 241.57 209.07 L 240.92 209.09 L 240.3 208.9 L 239.77 208.53 L 239.39 208 L 239.2 207.38 L 239.21 206.73 L 239.43 206.12 L 239.83 205.61 L 240.38 205.26 L 241.01 205.1 L 241.66 205.15 L 242.25 205.4 L 242.74 205.83 L 243.06 206.4 L 243.19 207.03 L 243.1 207.68 L 242.82 208.26 L 242.36 208.72 L 241.78 209.01 L 241.14 209.11 L 240.5 208.99 L 239.93 208.67 L 239.5 208.19 L 239.24 207.59 L 239.18 206.95 L 239.33 206.31 L 239.33 206.31 L 241.95 202.97 L 244.38 201.7 L 247.65 200.01 L 251.48 197.81 L 255.19 195.39 L 259.29 192.63 L 257.37 190.98 L 254.42 188.98 L 250.49 186.77 L 246.02 184.5 L 241.85 182.38 L 238.18 180.37 L 234.74 177.4 L 237.37 177.21 L 238.81 179.09 L 239.08 179.52 L 239.24 179.99 L 239.27 180.49 L 239.19 180.98 L 238.99 181.44 L 238.69 181.84 L 238.31 182.16 L 237.85 182.37 L 237.36 182.47 L 236.86 182.45 L 236.38 182.31 L 235.95 182.06 L 235.59 181.71 L 235.59 181.71" fill="rgb(0, 0, 0)" stroke="rgb(0, 0, 0)" stroke-miterlimit="10" pointer-events="all"/></g></g><g data-cell-id="fGU3WEagON-DqYOOjsWN-135"><g><path d="M 138.67 261.04 L 142.01 262.29 L 145.6 263.64 L 149.72 265.21 L 154.13 266.6 L 158.3 267.75 L 161.85 268.91 L 164.72 270.07 L 167.17 271.23 L 170 272.61 L 173.52 274.25 L 177.51 276.05 L 181.94 278.05 L 186.05 279.95 L 189.54 281.5 L 192.59 282.93 L 195.38 284.47 L 197.89 286.04 L 200.57 287.85 L 203.6 289.88 L 206.8 291.88 L 210.19 293.89 L 213.44 295.93 L 216.06 297.71 L 218.17 299.26 L 221.68 301.87 L 223.97 303.25 L 226.56 304.77 L 229.22 306.19 L 231.59 307.49 L 234.65 308.98 L 237.23 310.12 L 240.37 311.57 L 243.63 313.07 L 248.2 315.16 L 248.9 315.65 L 249.4 316.34 L 249.65 317.16 L 249.64 318.01 L 249.34 318.82 L 248.81 319.49 L 248.09 319.95 L 247.26 320.16 L 246.41 320.1 L 245.63 319.77 L 244.99 319.2 L 244.56 318.46 L 244.4 317.61 L 244.51 316.77 L 244.88 316 L 245.48 315.39 L 246.24 315.01 L 247.09 314.89 L 247.93 315.04 L 248.68 315.46 L 249.25 316.09 L 249.59 316.88 L 249.67 317.73 L 249.47 318.56 L 249.01 319.29 L 248.36 319.82 L 247.55 320.12 L 246.7 320.15 L 245.88 319.9 L 245.88 319.9 L 241.45 317.76 L 238.13 316.1 L 235.17 314.56 L 232.48 313.14 L 229.39 311.37 L 227.14 310.05 L 224.35 308.55 L 221.68 306.96 L 217.2 303.88 L 213.83 300.87 L 211.44 299.11 L 208.3 297.14 L 204.78 295.14 L 201.46 293.11 L 198.34 291.06 L 195.78 289.23 L 193.52 287.64 L 191.02 286.08 L 188.14 284.56 L 184.71 282.94 L 180.63 281.16 L 176.09 279.39 L 171.94 277.72 L 168.24 276.08 L 163.27 273.38 L 160.72 272.16 L 157.44 270.96 L 153.17 269.84 L 148.5 268.59 L 144.28 267.17 L 140.66 265.84 L 137.33 264.56 L 136.93 264.35 L 136.59 264.05 L 136.33 263.68 L 136.17 263.25 L 136.12 262.8 L 136.17 262.35 L 136.33 261.92 L 136.59 261.55 L 136.93 261.25 L 137.33 261.04 L 137.77 260.93 L 138.23 260.93 L 138.67 261.04 L 138.67 261.04" fill="rgb(0, 0, 0)" stroke="rgb(0, 0, 0)" stroke-miterlimit="10" pointer-events="all"/></g></g><g data-cell-id="fGU3WEagON-DqYOOjsWN-136"><g><path d="M 236.35 291.37 L 238.4 292.14 L 240.74 294.27 L 242.53 297.06 L 244.32 300.54 L 246.33 304.41 L 248.32 307.86 L 250.22 310.91 L 251.86 313.3 L 254.13 316.73 L 256.14 319.17 L 257.04 322.83 L 254.02 326.03 L 250.76 326.79 L 246.39 327.41 L 241.41 328.07 L 236.88 328.79 L 232.12 329.99 L 231.49 330.04 L 230.88 329.89 L 230.34 329.54 L 229.95 329.05 L 229.73 328.45 L 229.72 327.82 L 229.91 327.22 L 230.28 326.71 L 230.79 326.34 L 231.4 326.16 L 232.03 326.18 L 232.62 326.39 L 233.11 326.79 L 233.45 327.33 L 233.6 327.94 L 233.55 328.57 L 233.3 329.15 L 232.87 329.62 L 232.32 329.93 L 231.7 330.05 L 231.07 329.96 L 230.51 329.68 L 230.06 329.23 L 229.78 328.66 L 229.7 328.03 L 229.82 327.41 L 230.14 326.86 L 230.61 326.44 L 231.19 326.2 L 231.19 326.2 L 236.18 325.14 L 240.67 324.16 L 245.52 322.95 L 251.92 321.11 L 250.46 318.92 L 248.55 315.47 L 246.96 312.93 L 245.03 309.81 L 242.9 306.32 L 240.63 302.52 L 238.85 299.31 L 236.71 295.87 L 234.85 295.03 L 234.43 294.8 L 234.08 294.47 L 233.82 294.07 L 233.66 293.62 L 233.62 293.15 L 233.69 292.67 L 233.87 292.23 L 234.15 291.84 L 234.52 291.54 L 234.95 291.33 L 235.42 291.23 L 235.89 291.24 L 236.35 291.37 L 236.35 291.37" fill="rgb(0, 0, 0)" stroke="rgb(0, 0, 0)" stroke-miterlimit="10" pointer-events="all"/></g></g><g data-cell-id="fGU3WEagON-DqYOOjsWN-141"><g><path d="M 318.48 21.59 L 319.89 20.12 L 320.48 19.59 L 320.84 19.34 L 321.25 19.17 L 321.69 19.11 L 322.13 19.15 L 322.55 19.3 L 322.92 19.55 L 323.22 19.87 L 323.44 20.26 L 323.55 20.69 L 323.56 21.13 L 323.46 21.57 L 323.27 21.97 L 322.98 22.3 L 320.46 24.65 L 317.02 27.3 L 312.17 30.94 L 307.09 34.86 L 301.88 38.7 L 297.23 42.05 L 293.64 44.48 L 290.73 46.31 L 287.23 48.86 L 285.29 50.81 L 284.38 52.3 L 284.02 52.68 L 283.58 52.96 L 283.09 53.12 L 282.57 53.17 L 282.06 53.08 L 281.58 52.88 L 281.17 52.57 L 280.84 52.17 L 280.61 51.7 L 280.51 51.19 L 280.53 50.67 L 280.67 50.18 L 280.93 49.73 L 284.44 47.21 L 287.2 45.66 L 290.59 44.04 L 291.28 43.82 L 291.99 43.84 L 292.66 44.08 L 293.22 44.53 L 293.61 45.13 L 293.79 45.82 L 293.73 46.54 L 293.45 47.2 L 292.98 47.73 L 292.35 48.08 L 291.65 48.22 L 290.94 48.13 L 290.3 47.82 L 289.79 47.31 L 289.47 46.67 L 289.37 45.96 L 289.5 45.26 L 289.85 44.63 L 290.38 44.15 L 291.04 43.87 L 291.75 43.81 L 292.45 43.98 L 293.05 44.36 L 293.5 44.92 L 293.75 45.59 L 293.78 46.3 L 293.57 46.99 L 293.15 47.57 L 292.57 47.99 L 292.57 47.99 L 289.42 49.65 L 287.07 50.95 L 284.38 52.3 L 284.02 52.68 L 283.58 52.96 L 283.09 53.12 L 282.57 53.17 L 282.06 53.08 L 281.58 52.88 L 281.17 52.57 L 280.84 52.17 L 280.61 51.7 L 280.51 51.19 L 280.53 50.67 L 280.67 50.18 L 280.93 49.73 L 281.63 48.78 L 283.69 46.95 L 286.91 44.78 L 289.14 43.59 L 292.03 42.04 L 295.55 39.76 L 300.08 36.34 L 305.12 32.4 L 310.06 28.29 L 314.7 24.38 L 317.93 21.73 L 320.48 19.59 L 320.84 19.34 L 321.25 19.17 L 321.69 19.11 L 322.13 19.15 L 322.55 19.3 L 322.92 19.55 L 323.22 19.87 L 323.44 20.26 L 323.55 20.69 L 323.56 21.13 L 323.46 21.57 L 323.27 21.96 L 322.98 22.3 L 322.3 22.72 L 320.72 24.01 L 320.4 24.25 L 320.03 24.39 L 319.64 24.45 L 319.24 24.41 L 318.86 24.28 L 318.53 24.06 L 318.26 23.77 L 318.07 23.42 L 317.97 23.03 L 317.96 22.63 L 318.04 22.24 L 318.22 21.89 L 318.48 21.59 L 318.48 21.59" fill="rgb(0, 0, 0)" stroke="rgb(0, 0, 0)" stroke-miterlimit="10" pointer-events="all"/></g></g><g data-cell-id="fGU3WEagON-DqYOOjsWN-142"><g><path d="M 287.95 57.49 L 286.84 63.67 L 286.08 69 L 285.98 72.67 L 286.12 75.79 L 286.24 78.44 L 286.33 81.06 L 286.29 83.76 L 286.06 86.6 L 285.76 89.32 L 285.29 91.97 L 284.68 95.66 L 284.47 98.65 L 284.69 101.44 L 285.47 104.14 L 286.35 107.67 L 286.48 111.03 L 286.79 114.12 L 287.31 117.45 L 283.9 117.76 L 287.74 114.31 L 290.79 112.12 L 294.24 109.73 L 298.13 107.51 L 301.82 105.42 L 302.46 105.15 L 303.15 105.1 L 303.82 105.28 L 304.4 105.67 L 304.83 106.21 L 305.06 106.87 L 305.07 107.56 L 304.85 108.22 L 304.44 108.78 L 303.87 109.17 L 303.2 109.37 L 302.51 109.34 L 301.86 109.09 L 301.33 108.65 L 300.96 108.06 L 300.81 107.38 L 300.87 106.69 L 301.16 106.06 L 301.63 105.54 L 302.24 105.21 L 302.92 105.1 L 303.61 105.2 L 304.23 105.52 L 304.71 106.01 L 305.01 106.64 L 305.09 107.33 L 304.95 108.01 L 304.6 108.61 L 304.07 109.06 L 304.07 109.06 L 300.58 111.41 L 297.32 113.67 L 294.21 116.42 L 291.6 118.75 L 288.44 121.73 L 284.97 123.32 L 282.13 121.95 L 281.38 118.69 L 281.15 116.17 L 280.81 113.63 L 280.71 111.07 L 280.74 107.73 L 280.04 104.84 L 279.55 102.17 L 279.53 99.32 L 279.87 96.18 L 280.54 93.19 L 281.55 88.77 L 281.95 86.18 L 282.27 83.59 L 282.45 81.07 L 282.53 78.47 L 282.6 75.85 L 282.64 72.54 L 282.84 68.62 L 283.33 63.15 L 284.05 56.91 L 284.17 56.45 L 284.41 56.04 L 284.73 55.69 L 285.13 55.43 L 285.58 55.28 L 286.05 55.23 L 286.52 55.3 L 286.96 55.48 L 287.35 55.76 L 287.65 56.12 L 287.86 56.55 L 287.96 57.01 L 287.95 57.49 L 287.95 57.49" fill="rgb(0, 0, 0)" stroke="rgb(0, 0, 0)" stroke-miterlimit="10" pointer-events="all"/></g></g><g data-cell-id="fGU3WEagON-DqYOOjsWN-143"><g><path d="M 326.53 31.09 L 325.34 29.17 L 323.48 26.78 L 323.23 26.27 L 323.11 25.71 L 323.12 25.14 L 323.27 24.58 L 323.55 24.08 L 323.94 23.67 L 324.42 23.35 L 324.96 23.16 L 325.53 23.11 L 326.1 23.19 L 326.62 23.4 L 327.09 23.74 L 327.46 24.18 L 328.2 27.31 L 328.89 31.33 L 329.55 34.61 L 330.06 37.87 L 330.21 42.56 L 330.18 45.34 L 330.13 48.37 L 330.04 51.83 L 329.84 55.34 L 329.51 58.76 L 329.01 62.02 L 328.46 64.76 L 327.48 68.93 L 326.9 72.38 L 326.35 76.59 L 325.59 81.02 L 324.97 84.8 L 324.41 88.11 L 323.69 91.24 L 322.93 94.05 L 322.48 97.14 L 321.73 99.63 L 318.7 102.12 L 315.69 103.34 L 311.32 104.63 L 306 105.91 L 300.91 106.93 L 297.22 107.9 L 295.24 108.92 L 294.93 109.48 L 294.46 109.9 L 293.88 110.15 L 293.25 110.2 L 292.63 110.05 L 292.1 109.71 L 291.7 109.22 L 291.48 108.62 L 291.46 107.99 L 291.65 107.38 L 292.01 106.86 L 292.53 106.49 L 293.14 106.31 L 293.77 106.32 L 294.36 106.54 L 294.86 106.94 L 295.2 107.47 L 295.36 108.09 L 295.3 108.72 L 295.05 109.3 L 294.63 109.77 L 294.08 110.09 L 293.46 110.21 L 292.83 110.12 L 292.26 109.84 L 291.81 109.39 L 291.53 108.82 L 291.44 108.2 L 291.56 107.57 L 291.56 107.57 L 296.25 104.23 L 299.97 103.22 L 304.72 101.77 L 309.57 99.91 L 313.45 98.16 L 316.86 95.84 L 317.66 92.44 L 318.46 89.85 L 319.18 87.21 L 319.84 84.03 L 320.58 80.13 L 321.37 75.8 L 322.04 71.39 L 322.83 67.8 L 323.94 63.81 L 324.48 61.35 L 324.9 58.37 L 325.12 55.19 L 325.16 51.84 L 325.06 48.38 L 324.99 45.37 L 324.88 40.28 L 324.65 36.99 L 324.25 33.93 L 323.71 30 L 323.48 26.78 L 323.23 26.27 L 323.11 25.71 L 323.12 25.14 L 323.27 24.58 L 323.55 24.08 L 323.94 23.67 L 324.42 23.35 L 324.96 23.16 L 325.53 23.11 L 326.1 23.19 L 326.62 23.4 L 327.09 23.74 L 327.46 24.18 L 327.79 24.57 L 329.17 26.92 L 330.27 28.9 L 330.48 29.38 L 330.56 29.89 L 330.52 30.42 L 330.36 30.91 L 330.09 31.36 L 329.71 31.72 L 329.26 31.98 L 328.76 32.13 L 328.24 32.16 L 327.73 32.06 L 327.26 31.84 L 326.85 31.51 L 326.53 31.09 L 326.53 31.09" fill="rgb(0, 0, 0)" stroke="rgb(0, 0, 0)" stroke-miterlimit="10" pointer-events="all"/></g></g><g data-cell-id="fGU3WEagON-DqYOOjsWN-144"><g><path d="M 286.37 54.78 L 286.74 55.3 L 286.93 55.91 L 286.91 56.55 L 286.69 57.15 L 286.29 57.64 L 285.75 57.99 L 285.13 58.14 L 284.5 58.09 L 283.91 57.84 L 283.44 57.41 L 283.12 56.85 L 283 56.23 L 283.09 55.6 L 283.37 55.02 L 283.82 54.57 L 284.4 54.29 L 285.03 54.2 L 285.66 54.32 L 286.21 54.64 L 286.64 55.11 L 286.89 55.7 L 286.94 56.34 L 286.79 56.95 L 286.44 57.49 L 285.95 57.89 L 285.35 58.11 L 284.71 58.13 L 284.1 57.94 L 283.58 57.57 L 283.58 57.57 L 283.13 57.32 L 282.76 56.96 L 282.48 56.53 L 282.31 56.04 L 282.27 55.53 L 282.35 55.02 L 282.54 54.55 L 282.85 54.14 L 283.24 53.81 L 283.71 53.58 L 284.21 53.48 L 284.72 53.49 L 285.22 53.63" fill="rgb(0, 0, 0)" stroke="rgb(0, 0, 0)" stroke-miterlimit="10" pointer-events="all"/></g></g><g data-cell-id="fGU3WEagON-DqYOOjsWN-145"><g><path d="M 266.99 109.21 L 265.1 107.63 L 263.24 104.89 L 262.11 102.39 L 261.97 101.99 L 261.83 101.41 L 261.83 100.82 L 261.97 100.24 L 262.24 99.71 L 262.63 99.26 L 263.12 98.92 L 263.68 98.7 L 264.27 98.63 L 264.87 98.7 L 265.42 98.91 L 265.92 99.24 L 266.31 99.69 L 266.6 100.22 L 268.71 103.29 L 271.17 107.16 L 274.37 110.88 L 277.37 113.76 L 279.71 115.55 L 283.14 116.93 L 288 118.41 L 288.77 118.79 L 289.37 119.41 L 289.75 120.18 L 289.86 121.04 L 289.7 121.88 L 289.27 122.63 L 288.62 123.2 L 287.83 123.54 L 286.97 123.6 L 286.13 123.39 L 285.41 122.92 L 284.88 122.25 L 284.58 121.44 L 284.56 120.58 L 284.82 119.75 L 285.33 119.06 L 286.03 118.56 L 286.85 118.31 L 287.72 118.34 L 288.53 118.64 L 289.19 119.18 L 289.65 119.91 L 289.86 120.75 L 289.78 121.61 L 289.44 122.4 L 288.86 123.04 L 288.11 123.46 L 287.26 123.61 L 286.4 123.49 L 286.4 123.49 L 281.26 121.84 L 276.7 119.84 L 273.77 117.41 L 270.65 114.3 L 268.8 112.3 L 267.01 110.14 L 265.34 107.81 L 263.3 104.15 L 261.97 101.99 L 261.83 101.41 L 261.83 100.82 L 261.97 100.24 L 262.24 99.71 L 262.63 99.26 L 263.12 98.92 L 263.68 98.7 L 264.27 98.63 L 264.87 98.7 L 265.42 98.91 L 265.92 99.24 L 266.31 99.69 L 266.6 100.22 L 266.88 101.25 L 268.02 104.35 L 269.81 105.99 L 270.15 106.37 L 270.4 106.83 L 270.52 107.33 L 270.53 107.85 L 270.41 108.35 L 270.17 108.81 L 269.83 109.19 L 269.41 109.49 L 268.92 109.67 L 268.41 109.74 L 267.9 109.68 L 267.42 109.5 L 266.99 109.21 L 266.99 109.21" fill="rgb(0, 0, 0)" stroke="rgb(0, 0, 0)" stroke-miterlimit="10" pointer-events="all"/></g></g><g data-cell-id="fGU3WEagON-DqYOOjsWN-146"><g><path d="M 267.26 33.08 L 266.39 30.8 L 265.33 28.31 L 264.87 27.88 L 264.7 27.35 L 264.66 26.79 L 264.75 26.24 L 264.97 25.73 L 265.31 25.28 L 265.74 24.93 L 266.25 24.69 L 266.79 24.59 L 267.35 24.61 L 267.89 24.77 L 268.37 25.05 L 268.77 25.44 L 269.07 25.92 L 268.92 29.41 L 268.59 32.31 L 268.06 36.46 L 267.42 41.66 L 266.72 47.36 L 266.14 52.96 L 265.62 58 L 265.34 62.3 L 265.3 65.93 L 265.33 69.2 L 265.4 72.31 L 265.47 75.23 L 265.55 77.86 L 265.71 82.13 L 266.21 85.5 L 267.12 89.17 L 267.98 92.91 L 268.45 95.71 L 268.61 100.2 L 268.47 101.03 L 268.08 101.78 L 267.47 102.36 L 266.7 102.71 L 265.86 102.81 L 265.04 102.63 L 264.32 102.2 L 263.77 101.56 L 263.45 100.77 L 263.41 99.93 L 263.63 99.12 L 264.1 98.42 L 264.77 97.9 L 265.57 97.64 L 266.42 97.63 L 267.22 97.9 L 267.89 98.41 L 268.36 99.11 L 268.59 99.92 L 268.55 100.76 L 268.23 101.55 L 267.69 102.19 L 266.97 102.63 L 266.14 102.81 L 265.31 102.71 L 264.54 102.36 L 263.93 101.78 L 263.53 101.04 L 263.39 100.21 L 263.39 100.21 L 263.4 97.01 L 263.17 93.76 L 262.56 90.32 L 261.77 86.18 L 261.49 82.13 L 261.66 77.85 L 261.75 75.23 L 261.84 72.28 L 261.94 69.14 L 262.09 65.82 L 262.29 62.1 L 262.6 57.75 L 262.92 52.71 L 263.24 47.04 L 263.55 41.38 L 263.68 36.08 L 263.88 31.79 L 264.87 27.88 L 264.7 27.35 L 264.66 26.79 L 264.75 26.24 L 264.97 25.73 L 265.31 25.28 L 265.74 24.93 L 266.25 24.69 L 266.79 24.59 L 267.35 24.61 L 267.89 24.77 L 268.37 25.05 L 268.77 25.44 L 269.07 25.92 L 269.6 26.88 L 270.4 29.4 L 271.14 31.72 L 271.25 32.2 L 271.24 32.7 L 271.1 33.18 L 270.86 33.61 L 270.52 33.97 L 270.11 34.25 L 269.64 34.41 L 269.15 34.46 L 268.66 34.39 L 268.2 34.2 L 267.8 33.9 L 267.48 33.53 L 267.26 33.08 L 267.26 33.08" fill="rgb(0, 0, 0)" stroke="rgb(0, 0, 0)" stroke-miterlimit="10" pointer-events="all"/></g></g><g data-cell-id="fGU3WEagON-DqYOOjsWN-147"><g><path d="M 269.65 35.53 L 268.89 33.72 L 268.17 32.73 L 268 32.21 L 267.97 31.67 L 268.06 31.14 L 268.29 30.64 L 268.62 30.21 L 269.04 29.88 L 269.54 29.65 L 270.07 29.55 L 270.61 29.58 L 271.13 29.74 L 271.59 30.02 L 271.98 30.4 L 272.26 30.87 L 273.6 33.28 L 274.98 35.63 L 276.6 38.7 L 278.08 41.48 L 279.32 43.66 L 282.23 48.71 L 282.47 49.45 L 282.46 50.22 L 282.2 50.96 L 281.72 51.57 L 281.07 51.99 L 280.31 52.19 L 279.54 52.13 L 278.82 51.84 L 278.24 51.32 L 277.85 50.65 L 277.69 49.89 L 277.79 49.12 L 278.13 48.42 L 278.67 47.86 L 279.36 47.51 L 280.13 47.4 L 280.9 47.54 L 281.58 47.91 L 282.1 48.48 L 282.42 49.19 L 282.49 49.97 L 282.31 50.72 L 281.9 51.38 L 281.3 51.88 L 280.57 52.15 L 279.79 52.18 L 279.05 51.96 L 278.41 51.51 L 277.95 50.89 L 277.95 50.89 L 275.29 45.87 L 274.1 43.64 L 272.59 40.89 L 270.94 37.99 L 269.49 35.51 L 268.17 32.73 L 268 32.21 L 267.97 31.67 L 268.06 31.14 L 268.28 30.64 L 268.62 30.21 L 269.04 29.88 L 269.54 29.65 L 270.07 29.55 L 270.61 29.58 L 271.13 29.74 L 271.59 30.02 L 271.98 30.4 L 272.26 30.87 L 272.93 32.2 L 273.55 34.07 L 273.67 34.56 L 273.67 35.06 L 273.55 35.55 L 273.31 35.99 L 272.98 36.37 L 272.56 36.65 L 272.09 36.83 L 271.59 36.89 L 271.09 36.82 L 270.62 36.64 L 270.21 36.36 L 269.88 35.98 L 269.65 35.53 L 269.65 35.53" fill="rgb(0, 0, 0)" stroke="rgb(0, 0, 0)" stroke-miterlimit="10" pointer-events="all"/></g></g><g data-cell-id="fGU3WEagON-DqYOOjsWN-148"><g><path d="M 305.62 8.23 L 304.77 5.72 L 303.8 3.75 L 303.62 3.24 L 303.56 2.69 L 303.64 2.15 L 303.84 1.65 L 304.16 1.2 L 304.58 0.85 L 305.07 0.61 L 305.6 0.49 L 306.15 0.5 L 306.68 0.64 L 307.15 0.9 L 307.55 1.27 L 307.86 1.73 L 310.6 4.03 L 313 6.27 L 315.7 8.88 L 318.39 11.85 L 320.71 14.49 L 323.46 18.08 L 323.77 18.72 L 323.86 19.43 L 323.72 20.13 L 323.36 20.74 L 322.82 21.21 L 322.17 21.48 L 321.46 21.53 L 320.77 21.35 L 320.17 20.96 L 319.73 20.4 L 319.49 19.73 L 319.48 19.02 L 319.7 18.34 L 320.12 17.77 L 320.71 17.36 L 321.39 17.16 L 322.1 17.19 L 322.77 17.44 L 323.32 17.89 L 323.69 18.5 L 323.85 19.19 L 323.79 19.9 L 323.5 20.55 L 323.02 21.08 L 322.39 21.42 L 321.69 21.54 L 320.99 21.44 L 320.35 21.11 L 319.86 20.6 L 319.86 20.6 L 317.52 17.31 L 315.28 14.81 L 312.66 12.18 L 309.87 9.72 L 307.5 7.63 L 305.59 5.95 L 303.8 3.75 L 303.62 3.24 L 303.56 2.69 L 303.64 2.15 L 303.84 1.65 L 304.16 1.2 L 304.58 0.85 L 305.07 0.61 L 305.6 0.49 L 306.15 0.5 L 306.67 0.64 L 307.15 0.9 L 307.55 1.27 L 307.86 1.73 L 307.89 1.95 L 308.82 4.42 L 309.58 6.97 L 309.67 7.46 L 309.65 7.96 L 309.5 8.44 L 309.24 8.87 L 308.89 9.23 L 308.46 9.49 L 307.99 9.64 L 307.49 9.67 L 306.99 9.59 L 306.54 9.38 L 306.14 9.08 L 305.83 8.68 L 305.62 8.23 L 305.62 8.23" fill="rgb(0, 0, 0)" stroke="rgb(0, 0, 0)" stroke-miterlimit="10" pointer-events="all"/></g></g><g data-cell-id="fGU3WEagON-DqYOOjsWN-149"><g><path d="M 293.13 15.26 L 289.54 16.46 L 285.71 18.35 L 283.21 19.78 L 280.7 21.96 L 278.12 23.53 L 275.89 25.3 L 273.82 27.4 L 271.55 28.99 L 269.53 30.55 L 268.99 31.02 L 268.36 31.35 L 267.66 31.51 L 266.95 31.51 L 266.26 31.33 L 265.63 31 L 265.1 30.52 L 264.7 29.93 L 264.45 29.26 L 264.37 28.55 L 264.46 27.85 L 264.72 27.18 L 265.13 26.6 L 266.9 24.46 L 269.82 21.73 L 272.29 20.16 L 275.41 18.42 L 278.51 16.57 L 280.8 14.76 L 283.57 11.82 L 285.84 9.76 L 289.33 8.3 L 294.12 7.16 L 297.56 6.32 L 300.64 4.44 L 305.9 2.04 L 306.82 2.09 L 307.68 2.43 L 308.38 3.02 L 308.85 3.81 L 309.05 4.7 L 308.96 5.62 L 308.57 6.45 L 307.94 7.12 L 307.13 7.55 L 306.23 7.7 L 305.32 7.56 L 304.5 7.13 L 303.87 6.46 L 303.49 5.63 L 303.38 4.72 L 303.58 3.82 L 304.05 3.03 L 304.75 2.44 L 305.6 2.09 L 306.52 2.04 L 307.41 2.29 L 308.17 2.8 L 308.72 3.53 L 309.02 4.4 L 309.02 5.32 L 308.73 6.19 L 308.18 6.92 L 307.42 7.44 L 306.53 7.69 L 306.53 7.69 L 304.52 8.65 L 301.65 10.3 L 298.93 11.49 L 295.16 12.35 L 291.03 13.33 L 288.25 14.35 L 285.96 16.71 L 283.96 18.61 L 281.33 20.84 L 278.27 23.06 L 275.54 24.94 L 271.68 28.09 L 269.53 30.55 L 268.99 31.02 L 268.36 31.35 L 267.66 31.51 L 266.95 31.51 L 266.26 31.33 L 265.63 31 L 265.1 30.52 L 264.7 29.93 L 264.45 29.26 L 264.37 28.55 L 264.46 27.85 L 264.72 27.18 L 265.12 26.6 L 265.3 26.31 L 268.01 24.35 L 270.67 22.8 L 272.76 20.73 L 274.88 19.27 L 277.53 18.08 L 279.64 16.47 L 282.25 15.01 L 285.66 13.47 L 288.13 12.47 L 291.67 11.14 L 292.19 11.02 L 292.71 11.04 L 293.22 11.17 L 293.68 11.43 L 294.07 11.79 L 294.36 12.23 L 294.54 12.72 L 294.58 13.25 L 294.51 13.77 L 294.31 14.26 L 294 14.69 L 293.6 15.03 L 293.13 15.26 L 293.13 15.26" fill="rgb(0, 0, 0)" stroke="rgb(0, 0, 0)" stroke-miterlimit="10" pointer-events="all"/></g></g><g data-cell-id="fGU3WEagON-DqYOOjsWN-150"><g><path d="M 281.57 175.58 L 281.94 176.1 L 282.13 176.71 L 282.11 177.35 L 281.89 177.95 L 281.49 178.44 L 280.95 178.79 L 280.34 178.94 L 279.7 178.89 L 279.11 178.64 L 278.64 178.21 L 278.32 177.65 L 278.2 177.03 L 278.29 176.4 L 278.57 175.82 L 279.02 175.37 L 279.6 175.09 L 280.23 175 L 280.86 175.12 L 281.41 175.44 L 281.84 175.91 L 282.09 176.5 L 282.14 177.14 L 281.99 177.75 L 281.64 178.29 L 281.15 178.69 L 280.55 178.91 L 279.91 178.93 L 279.3 178.74 L 278.78 178.37 L 278.78 178.37 L 278.33 178.12 L 277.96 177.76 L 277.68 177.33 L 277.51 176.84 L 277.47 176.33 L 277.55 175.82 L 277.74 175.35 L 278.05 174.94 L 278.44 174.61 L 278.91 174.38 L 279.41 174.28 L 279.92 174.29 L 280.42 174.43" fill="rgb(0, 0, 0)" stroke="rgb(0, 0, 0)" stroke-miterlimit="10" pointer-events="all"/></g></g><g data-cell-id="fGU3WEagON-DqYOOjsWN-163"><g><path d="M 290.37 173.18 L 290.74 173.7 L 290.93 174.31 L 290.91 174.95 L 290.69 175.55 L 290.29 176.04 L 289.75 176.39 L 289.13 176.54 L 288.5 176.49 L 287.91 176.24 L 287.44 175.81 L 287.12 175.25 L 287 174.63 L 287.09 174 L 287.37 173.42 L 287.82 172.97 L 288.4 172.69 L 289.03 172.6 L 289.66 172.72 L 290.21 173.04 L 290.64 173.51 L 290.89 174.1 L 290.94 174.74 L 290.79 175.35 L 290.44 175.89 L 289.95 176.29 L 289.35 176.51 L 288.71 176.53 L 288.1 176.34 L 287.58 175.97 L 287.58 175.97 L 287.13 175.72 L 286.76 175.36 L 286.48 174.93 L 286.31 174.44 L 286.27 173.93 L 286.35 173.42 L 286.54 172.95 L 286.85 172.54 L 287.24 172.21 L 287.71 171.98 L 288.21 171.88 L 288.72 171.89 L 289.22 172.03" fill="rgb(0, 0, 0)" stroke="rgb(0, 0, 0)" stroke-miterlimit="10" pointer-events="all"/></g></g><g data-cell-id="fGU3WEagON-DqYOOjsWN-164"><g><path d="M 288.73 175.86 L 286.77 176.3 L 283.83 175.67 L 283.08 172.02 L 287.46 168.53 L 291.63 166.35 L 296.4 163.73 L 301.08 160.95 L 304.9 158.5 L 307.89 156.55 L 310.62 155.03 L 313.15 153.93 L 317.63 151.92 L 320.92 149.83 L 321.96 149.13 L 322.46 148.91 L 323 148.83 L 323.54 148.87 L 324.05 149.04 L 324.51 149.33 L 324.89 149.72 L 325.16 150.19 L 325.32 150.71 L 325.34 151.25 L 325.23 151.79 L 325 152.28 L 324.65 152.7 L 324.22 153.03 L 321.64 154.31 L 319.18 155.37 L 315.76 156.93 L 311.97 158.77 L 308.52 160.92 L 305.75 163.08 L 303.76 165 L 302.08 166.93 L 299.52 170.1 L 298.72 170.94 L 298.3 171.3 L 297.82 171.55 L 297.28 171.67 L 296.74 171.67 L 296.2 171.53 L 295.72 171.27 L 295.32 170.9 L 295.01 170.45 L 294.82 169.93 L 294.76 169.39 L 294.83 168.85 L 295.03 168.34 L 295.35 167.89 L 297.59 164.28 L 300.19 161.79 L 300.79 161.36 L 301.49 161.15 L 302.22 161.18 L 302.91 161.43 L 303.48 161.9 L 303.86 162.52 L 304.04 163.23 L 303.97 163.96 L 303.68 164.63 L 303.18 165.17 L 302.55 165.53 L 301.83 165.66 L 301.1 165.56 L 300.45 165.23 L 299.93 164.71 L 299.61 164.05 L 299.52 163.32 L 299.66 162.6 L 300.02 161.97 L 300.57 161.48 L 301.25 161.2 L 301.98 161.14 L 302.69 161.32 L 303.3 161.72 L 303.76 162.3 L 304 162.99 L 304.02 163.72 L 303.8 164.42 L 303.37 165.01 L 303.37 165.01 L 301.04 167.38 L 298.72 170.94 L 298.3 171.3 L 297.82 171.55 L 297.29 171.67 L 296.74 171.67 L 296.2 171.53 L 295.72 171.27 L 295.32 170.9 L 295.01 170.45 L 294.82 169.93 L 294.76 169.39 L 294.83 168.85 L 295.03 168.34 L 295.35 167.89 L 296.25 167.14 L 299.03 164.12 L 301.02 162.05 L 303.33 159.98 L 306.35 157.62 L 310.02 155.08 L 313.78 152.92 L 317.33 151.04 L 321.96 149.13 L 322.46 148.91 L 323 148.83 L 323.54 148.87 L 324.05 149.04 L 324.51 149.33 L 324.89 149.72 L 325.16 150.19 L 325.32 150.71 L 325.34 151.25 L 325.23 151.79 L 325 152.28 L 324.65 152.7 L 324.22 153.03 L 324.06 153.12 L 321.52 154.48 L 319.3 155.63 L 316.8 156.67 L 312.25 158.2 L 309.68 159.41 L 306.67 161.2 L 302.86 163.77 L 298.28 166.85 L 293.68 169.87 L 289.86 172.32 L 286.12 172.39 L 288.07 172.13 L 288.52 172.11 L 288.98 172.19 L 289.39 172.39 L 289.75 172.67 L 290.03 173.03 L 290.21 173.45 L 290.29 173.9 L 290.26 174.35 L 290.12 174.79 L 289.89 175.18 L 289.56 175.5 L 289.17 175.73 L 288.73 175.86 L 288.73 175.86" fill="rgb(0, 0, 0)" stroke="rgb(0, 0, 0)" stroke-miterlimit="10" pointer-events="all"/></g></g><g data-cell-id="fGU3WEagON-DqYOOjsWN-165"><g><path d="M 324.78 150.78 L 322.93 152.36 L 322.39 152.72 L 321.75 152.89 L 321.1 152.84 L 320.49 152.59 L 320 152.15 L 319.67 151.58 L 319.54 150.94 L 319.62 150.29 L 319.91 149.7 L 320.37 149.23 L 320.95 148.93 L 321.6 148.84 L 322.25 148.95 L 322.82 149.27 L 323.26 149.76 L 323.53 150.36 L 323.59 151.01 L 323.44 151.65 L 323.09 152.2 L 322.58 152.62 L 321.97 152.85 L 321.31 152.88 L 320.68 152.69 L 320.15 152.31 L 319.76 151.79 L 319.56 151.16 L 319.57 150.5 L 319.79 149.89 L 320.2 149.37 L 320.19 149.37 L 322.41 147.62 L 322.83 147.38 L 323.28 147.25 L 323.76 147.23 L 324.23 147.33 L 324.66 147.53 L 325.03 147.83 L 325.31 148.21 L 325.5 148.65 L 325.57 149.12 L 325.53 149.6 L 325.38 150.05 L 325.13 150.45 L 324.78 150.78 L 324.78 150.78" fill="rgb(0, 0, 0)" stroke="rgb(0, 0, 0)" stroke-miterlimit="10" pointer-events="all"/></g></g><g data-cell-id="fGU3WEagON-DqYOOjsWN-166"><g><path d="M 284.71 179.51 L 285.58 181.21 L 287.53 185.15 L 288.92 187.6 L 289.22 188.29 L 289.29 189.03 L 289.11 189.76 L 288.71 190.4 L 288.13 190.87 L 287.43 191.13 L 286.68 191.15 L 285.96 190.94 L 285.35 190.5 L 284.91 189.9 L 284.68 189.18 L 284.7 188.43 L 284.96 187.73 L 285.42 187.14 L 286.05 186.73 L 286.78 186.55 L 287.53 186.6 L 288.22 186.9 L 288.78 187.4 L 289.15 188.05 L 289.29 188.78 L 289.2 189.53 L 288.87 190.2 L 288.34 190.73 L 287.67 191.07 L 286.93 191.17 L 286.19 191.04 L 285.53 190.67 L 285.03 190.11 L 285.03 190.11 L 283.45 187.19 L 281.63 183.04 L 280.9 181.29 L 280.74 180.81 L 280.7 180.3 L 280.78 179.8 L 280.99 179.34 L 281.29 178.93 L 281.69 178.62 L 282.15 178.4 L 282.64 178.3 L 283.15 178.33 L 283.64 178.47 L 284.07 178.73 L 284.44 179.08 L 284.71 179.51 L 284.71 179.51" fill="rgb(0, 0, 0)" stroke="rgb(0, 0, 0)" stroke-miterlimit="10" pointer-events="all"/></g></g><g data-cell-id="fGU3WEagON-DqYOOjsWN-167"><g><path d="M 292.75 190.84 L 297.95 189.44 L 303.19 187.64 L 308.72 185.31 L 314.49 182.5 L 320.06 179.6 L 324.92 176.79 L 328.67 174.4 L 331.2 172.5 L 334.01 169.94 L 337.48 166.93 L 338.01 166.63 L 338.62 166.51 L 339.23 166.6 L 339.79 166.88 L 340.22 167.32 L 340.5 167.87 L 340.58 168.49 L 340.46 169.09 L 340.15 169.63 L 339.69 170.04 L 339.12 170.29 L 338.5 170.33 L 337.9 170.18 L 337.38 169.84 L 336.99 169.36 L 336.78 168.77 L 336.77 168.16 L 336.96 167.57 L 337.32 167.07 L 337.82 166.71 L 338.42 166.53 L 339.04 166.55 L 339.62 166.77 L 340.1 167.16 L 340.43 167.68 L 340.57 168.28 L 340.52 168.9 L 340.27 169.47 L 339.86 169.92 L 339.86 169.92 L 336.17 172.69 L 332.88 174.97 L 330.1 176.7 L 326.23 179.04 L 321.3 181.95 L 315.69 184.93 L 309.82 187.87 L 304.17 190.37 L 298.8 192.37 L 293.65 193.96 L 293.27 194.03 L 292.87 193.99 L 292.5 193.87 L 292.17 193.66 L 291.89 193.38 L 291.7 193.04 L 291.59 192.66 L 291.58 192.27 L 291.65 191.88 L 291.83 191.53 L 292.07 191.22 L 292.38 190.99 L 292.75 190.84 L 292.75 190.84" fill="rgb(0, 0, 0)" stroke="rgb(0, 0, 0)" stroke-miterlimit="10" pointer-events="all"/></g></g><g data-cell-id="fGU3WEagON-DqYOOjsWN-168"><g><path d="M 324.4 145.44 L 326.7 145.45 L 329.59 147.02 L 331.92 149.66 L 334 152.29 L 335.85 154.69 L 339.21 161.55 L 338.93 162.26 L 338.43 162.83 L 337.78 163.22 L 337.05 163.38 L 336.29 163.3 L 335.61 162.98 L 335.06 162.46 L 334.7 161.79 L 334.58 161.04 L 334.71 160.29 L 335.06 159.63 L 335.61 159.11 L 336.3 158.79 L 337.06 158.71 L 337.79 158.87 L 338.44 159.27 L 338.93 159.84 L 339.21 160.55 L 339.25 161.3 L 339.04 162.03 L 338.62 162.66 L 338.01 163.11 L 337.3 163.35 L 336.54 163.35 L 335.82 163.11 L 335.22 162.65 L 334.8 162.02 L 334.6 161.29 L 334.64 160.54 L 334.64 160.54 L 332.29 157.42 L 330.52 155.11 L 328.45 152.59 L 326.24 149.75 L 324.4 149.75 L 323.88 149.69 L 323.4 149.51 L 322.97 149.21 L 322.63 148.82 L 322.38 148.36 L 322.26 147.86 L 322.26 147.34 L 322.38 146.83 L 322.63 146.38 L 322.97 145.99 L 323.4 145.69 L 323.88 145.51 L 324.4 145.44 L 324.4 145.44" fill="rgb(0, 0, 0)" stroke="rgb(0, 0, 0)" stroke-miterlimit="10" pointer-events="all"/></g></g><g data-cell-id="fGU3WEagON-DqYOOjsWN-169"><g><path d="M 282.8 186.4 L 280.73 186.48 L 281.07 189.42 L 280.97 192.73 L 280.71 196.73 L 280.36 201.19 L 279.9 205.88 L 279.56 210.36 L 279.35 214.24 L 279.19 217.62 L 279.17 220.61 L 279.2 223.36 L 279.36 225.95 L 279.82 230.58 L 280.23 234.47 L 280.63 238.9 L 281.32 243.52 L 282.07 249.91 L 281.96 250.71 L 281.61 251.42 L 281.04 252 L 280.33 252.36 L 279.53 252.47 L 278.74 252.32 L 278.04 251.93 L 277.5 251.33 L 277.18 250.6 L 277.11 249.8 L 277.3 249.02 L 277.73 248.34 L 278.36 247.83 L 279.11 247.55 L 279.91 247.53 L 280.68 247.76 L 281.33 248.23 L 281.8 248.88 L 282.04 249.64 L 282.03 250.45 L 281.75 251.2 L 281.25 251.83 L 280.58 252.27 L 279.8 252.46 L 279 252.4 L 278.26 252.08 L 277.66 251.55 L 277.26 250.86 L 277.11 250.07 L 277.11 250.07 L 276.78 246.13 L 276.21 241.86 L 275.76 236.93 L 275.64 232.85 L 275.39 228.67 L 275.29 226.09 L 275.25 223.31 L 275.36 220.49 L 275.52 217.39 L 275.78 214.04 L 276 210.17 L 276.15 205.64 L 276.3 201.03 L 276.3 196.58 L 276.32 192.63 L 276.28 187.28 L 277.48 183.33 L 280.73 182.32 L 282.8 182.4 L 283.28 182.46 L 283.73 182.63 L 284.13 182.9 L 284.45 183.26 L 284.67 183.69 L 284.79 184.16 L 284.79 184.64 L 284.67 185.11 L 284.45 185.54 L 284.13 185.9 L 283.73 186.18 L 283.28 186.34 L 282.8 186.4 L 282.8 186.4" fill="rgb(0, 0, 0)" stroke="rgb(0, 0, 0)" stroke-miterlimit="10" pointer-events="all"/></g></g><g data-cell-id="fGU3WEagON-DqYOOjsWN-170"><g><path d="M 290.6 194.13 L 291.21 192.25 L 291.87 191.04 L 292.14 190.6 L 292.5 190.25 L 292.93 189.99 L 293.42 189.84 L 293.92 189.81 L 294.42 189.91 L 294.88 190.12 L 295.28 190.43 L 295.59 190.83 L 295.8 191.3 L 295.89 191.8 L 295.86 192.3 L 295.7 192.78 L 296.33 195.44 L 296.58 198.74 L 296.92 202.88 L 297.36 207.74 L 297.93 212.69 L 298.53 217.22 L 298.94 221.53 L 299.02 225.64 L 298.87 229.29 L 298.62 232.7 L 298.44 235.72 L 298.3 238.28 L 297.75 242.72 L 294.45 249.62 L 293.78 249.88 L 293.06 249.92 L 292.36 249.72 L 291.76 249.32 L 291.33 248.74 L 291.1 248.06 L 291.1 247.33 L 291.33 246.65 L 291.77 246.07 L 292.37 245.67 L 293.06 245.48 L 293.79 245.52 L 294.46 245.79 L 295.01 246.25 L 295.38 246.88 L 295.53 247.58 L 295.45 248.3 L 295.15 248.96 L 294.65 249.48 L 294.01 249.82 L 293.3 249.93 L 292.58 249.81 L 291.95 249.48 L 291.45 248.95 L 291.15 248.29 L 291.07 247.57 L 291.23 246.87 L 291.6 246.25 L 292.15 245.78 L 292.15 245.79 L 293.6 241.95 L 294.42 237.95 L 294.73 235.41 L 295.05 232.36 L 295.43 229.09 L 295.7 225.68 L 295.68 221.83 L 295.29 217.7 L 294.58 213.19 L 293.67 208.24 L 292.79 203.34 L 292.19 199.12 L 291.87 195.72 L 291.87 191.04 L 292.14 190.6 L 292.5 190.25 L 292.93 189.99 L 293.42 189.84 L 293.92 189.81 L 294.42 189.91 L 294.88 190.12 L 295.28 190.43 L 295.59 190.83 L 295.8 191.3 L 295.89 191.8 L 295.86 192.3 L 295.7 192.78 L 294.97 193.66 L 294.2 195.47 L 293.98 195.88 L 293.68 196.23 L 293.3 196.5 L 292.87 196.66 L 292.41 196.72 L 291.95 196.67 L 291.51 196.5 L 291.13 196.24 L 290.82 195.9 L 290.61 195.49 L 290.5 195.04 L 290.49 194.57 L 290.6 194.13 L 290.6 194.13" fill="rgb(0, 0, 0)" stroke="rgb(0, 0, 0)" stroke-miterlimit="10" pointer-events="all"/></g></g><g data-cell-id="fGU3WEagON-DqYOOjsWN-171"><g><path d="M 280.85 247.93 L 281.7 246.43 L 284.2 248.59 L 286.97 251.09 L 290.34 253.84 L 293.54 256.28 L 296.31 258.65 L 298.2 260.5 L 298.23 261.18 L 298.87 260.99 L 299.53 261.01 L 300.15 261.24 L 300.67 261.66 L 301.03 262.23 L 301.18 262.87 L 301.13 263.54 L 300.86 264.15 L 300.41 264.64 L 299.83 264.97 L 299.17 265.09 L 298.51 264.99 L 297.92 264.69 L 297.45 264.22 L 297.16 263.62 L 297.07 262.96 L 297.2 262.31 L 297.54 261.73 L 298.03 261.29 L 298.65 261.03 L 299.31 260.98 L 299.96 261.14 L 300.52 261.51 L 300.93 262.03 L 301.16 262.65 L 301.17 263.32 L 300.97 263.96 L 300.58 264.5 L 300.03 264.88 L 300.03 264.88 L 293.79 261.56 L 291.26 259.34 L 287.98 256.95 L 284.21 254.27 L 280.99 251.59 L 278.85 249.18 L 278.17 245.11 L 281.55 244.07 L 282 244.21 L 282.41 244.46 L 282.74 244.79 L 282.99 245.19 L 283.13 245.64 L 283.16 246.11 L 283.07 246.58 L 282.88 247.01 L 282.59 247.38 L 282.22 247.68 L 281.78 247.87 L 281.32 247.96 L 280.85 247.93 L 280.85 247.93" fill="rgb(0, 0, 0)" stroke="rgb(0, 0, 0)" stroke-miterlimit="10" pointer-events="all"/></g></g><g data-cell-id="fGU3WEagON-DqYOOjsWN-172"><g><path d="M 296.78 242.43 L 297.38 245.54 L 297.47 249.92 L 297.47 253.99 L 297.52 257.45 L 299.05 260.88 L 299.45 261.44 L 299.65 262.09 L 299.64 262.77 L 299.41 263.41 L 298.98 263.94 L 298.41 264.31 L 297.75 264.47 L 297.07 264.42 L 296.44 264.15 L 295.94 263.7 L 295.6 263.11 L 295.47 262.44 L 295.56 261.77 L 295.86 261.15 L 296.34 260.67 L 296.95 260.37 L 297.62 260.28 L 298.29 260.4 L 298.88 260.74 L 299.34 261.24 L 299.61 261.86 L 299.67 262.54 L 299.51 263.2 L 299.14 263.78 L 298.61 264.2 L 297.97 264.44 L 297.29 264.46 L 296.64 264.26 L 296.09 263.87 L 296.09 263.87 L 293.65 257.47 L 293.64 254.05 L 293.54 250.05 L 293.37 246.27 L 292.82 243.17 L 292.79 242.68 L 292.88 242.2 L 293.07 241.76 L 293.37 241.38 L 293.76 241.08 L 294.2 240.88 L 294.67 240.79 L 295.16 240.82 L 295.62 240.96 L 296.04 241.21 L 296.38 241.56 L 296.63 241.97 L 296.78 242.43 L 296.78 242.43" fill="rgb(0, 0, 0)" stroke="rgb(0, 0, 0)" stroke-miterlimit="10" pointer-events="all"/></g></g><g data-cell-id="fGU3WEagON-DqYOOjsWN-173"><g><path d="M 297.31 259.09 L 301.71 256.84 L 307.19 253.53 L 314.31 248.5 L 322.99 241.99 L 332.07 234.87 L 340.07 228.29 L 346.44 222.75 L 346.79 222.54 L 347.19 222.44 L 347.6 222.48 L 347.98 222.65 L 348.28 222.93 L 348.48 223.29 L 348.55 223.7 L 348.49 224.11 L 348.3 224.47 L 348 224.76 L 347.63 224.94 L 347.22 224.99 L 346.82 224.9 L 346.46 224.7 L 346.19 224.39 L 346.03 224 L 346.01 223.59 L 346.11 223.19 L 346.34 222.85 L 346.66 222.6 L 347.05 222.46 L 347.47 222.45 L 347.86 222.58 L 348.19 222.83 L 348.42 223.16 L 348.54 223.56 L 348.52 223.97 L 348.37 224.36 L 348.11 224.68 L 348.11 224.67 L 341.7 230.27 L 333.68 236.91 L 324.57 244.09 L 315.87 250.68 L 308.62 255.88 L 303.03 259.36 L 298.68 261.7 L 298.36 261.83 L 298 261.87 L 297.65 261.83 L 297.32 261.7 L 297.03 261.5 L 296.79 261.24 L 296.62 260.92 L 296.54 260.58 L 296.54 260.23 L 296.62 259.88 L 296.79 259.56 L 297.02 259.3 L 297.31 259.09 L 297.31 259.09" fill="rgb(0, 0, 0)" stroke="rgb(0, 0, 0)" stroke-miterlimit="10" pointer-events="all"/></g></g><g data-cell-id="fGU3WEagON-DqYOOjsWN-174"><g><path d="M 342.91 169.91 L 343.13 176.01 L 343.3 183 L 343.34 190.59 L 343.46 198.05 L 343.61 204.32 L 343.82 208.93 L 344.16 212 L 344.65 216.07 L 345.27 222.46 L 345.04 223.05 L 344.63 223.53 L 344.09 223.86 L 343.48 224 L 342.85 223.94 L 342.28 223.68 L 341.81 223.24 L 341.51 222.69 L 341.41 222.07 L 341.5 221.44 L 341.8 220.88 L 342.25 220.45 L 342.82 220.18 L 343.45 220.1 L 344.07 220.23 L 344.61 220.56 L 345.02 221.04 L 345.26 221.62 L 345.3 222.25 L 345.14 222.86 L 344.79 223.38 L 344.28 223.77 L 343.69 223.98 L 343.06 223.98 L 342.46 223.78 L 341.95 223.4 L 341.59 222.89 L 341.42 222.28 L 341.45 221.64 L 341.45 221.65 L 341.13 216.36 L 341.15 212.2 L 341.09 209.04 L 340.92 204.4 L 340.7 198.11 L 340.49 190.64 L 340.31 183.11 L 339.96 176.18 L 339.49 170.09 L 339.52 169.68 L 339.64 169.29 L 339.85 168.94 L 340.15 168.65 L 340.5 168.43 L 340.9 168.31 L 341.31 168.29 L 341.72 168.37 L 342.09 168.53 L 342.42 168.79 L 342.67 169.12 L 342.84 169.5 L 342.91 169.91 L 342.91 169.91" fill="rgb(0, 0, 0)" stroke="rgb(0, 0, 0)" stroke-miterlimit="10" pointer-events="all"/></g></g><g data-cell-id="fGU3WEagON-DqYOOjsWN-175"><g><path d="M 273.03 310.24 L 271.82 308.32 L 270.1 305.14 L 270.26 305.99 L 270.01 305.51 L 269.88 304.97 L 269.89 304.42 L 270.03 303.89 L 270.29 303.41 L 270.66 303.01 L 271.11 302.7 L 271.63 302.51 L 272.17 302.45 L 272.72 302.53 L 273.22 302.73 L 273.67 303.05 L 274.03 303.46 L 276.63 305.76 L 279.08 308.53 L 281.43 311.68 L 283.31 314.59 L 284.62 316.74 L 286.18 318.07 L 286.87 318.3 L 287.46 318.74 L 287.87 319.35 L 288.08 320.05 L 288.04 320.78 L 287.77 321.47 L 287.3 322.03 L 286.67 322.41 L 285.96 322.57 L 285.22 322.5 L 284.56 322.19 L 284.02 321.69 L 283.67 321.04 L 283.55 320.32 L 283.67 319.6 L 284.01 318.95 L 284.54 318.44 L 285.2 318.13 L 285.93 318.04 L 286.65 318.2 L 287.28 318.57 L 287.76 319.13 L 288.03 319.81 L 288.08 320.54 L 287.88 321.25 L 287.47 321.86 L 286.89 322.31 L 286.2 322.54 L 285.46 322.55 L 285.46 322.55 L 279.66 316.94 L 277.98 314.35 L 275.75 311.59 L 273.36 309.1 L 270.26 305.99 L 270.01 305.51 L 269.88 304.97 L 269.89 304.42 L 270.03 303.89 L 270.29 303.41 L 270.66 303.01 L 271.11 302.7 L 271.63 302.51 L 272.17 302.45 L 272.72 302.53 L 273.22 302.73 L 273.67 303.04 L 274.03 303.46 L 275.48 306.17 L 276.57 308.16 L 276.77 308.61 L 276.85 309.1 L 276.82 309.59 L 276.66 310.06 L 276.4 310.49 L 276.05 310.83 L 275.62 311.08 L 275.15 311.23 L 274.65 311.25 L 274.17 311.15 L 273.72 310.94 L 273.33 310.63 L 273.03 310.24 L 273.03 310.24" fill="rgb(0, 0, 0)" stroke="rgb(0, 0, 0)" stroke-miterlimit="10" pointer-events="all"/></g></g><g data-cell-id="fGU3WEagON-DqYOOjsWN-176"><g><path d="M 282.98 323 L 290.6 319.74 L 300.06 315.61 L 311.44 310.54 L 323.97 304.61 L 336.17 298.43 L 346.41 292.94 L 353.61 288.79 L 357.61 287.49 L 357.19 287.34 L 356.84 287.05 L 356.61 286.67 L 356.5 286.24 L 356.54 285.79 L 356.73 285.38 L 357.03 285.05 L 357.42 284.83 L 357.86 284.76 L 358.3 284.82 L 358.7 285.02 L 359.02 285.34 L 359.21 285.75 L 359.27 286.19 L 359.17 286.63 L 358.95 287.02 L 358.62 287.31 L 358.2 287.49 L 357.76 287.52 L 357.32 287.4 L 356.95 287.16 L 356.67 286.81 L 356.53 286.39 L 356.52 285.94 L 356.65 285.51 L 356.92 285.15 L 357.28 284.89 L 357.72 284.77 L 358.16 284.78 L 358.16 284.78 L 354.89 291 L 347.63 295.21 L 337.35 300.76 L 325.1 307.01 L 312.55 313.01 L 301.19 318.16 L 291.78 322.39 L 284.21 325.8 L 283.86 325.9 L 283.49 325.92 L 283.13 325.85 L 282.8 325.7 L 282.51 325.47 L 282.28 325.18 L 282.14 324.84 L 282.07 324.48 L 282.1 324.11 L 282.21 323.76 L 282.41 323.45 L 282.67 323.19 L 282.98 323 L 282.98 323" fill="rgb(0, 0, 0)" stroke="rgb(0, 0, 0)" stroke-miterlimit="10" pointer-events="all"/></g></g><g data-cell-id="fGU3WEagON-DqYOOjsWN-177"><g><path d="M 281.49 302.91 L 289.49 300.24 L 295.97 298.09 L 305.97 294.67 L 316.4 290.82 L 326.94 286.78 L 335.53 283.24 L 340.99 280.72 L 344.71 282.32 L 344.38 282.62 L 343.97 282.8 L 343.53 282.85 L 343.09 282.75 L 342.71 282.52 L 342.42 282.17 L 342.26 281.75 L 342.24 281.3 L 342.36 280.87 L 342.62 280.51 L 342.98 280.24 L 343.4 280.1 L 343.85 280.1 L 344.27 280.25 L 344.63 280.53 L 344.88 280.9 L 344.99 281.33 L 344.97 281.78 L 344.79 282.19 L 344.5 282.53 L 344.11 282.76 L 343.67 282.85 L 343.23 282.8 L 342.82 282.61 L 342.5 282.3 L 342.3 281.9 L 342.23 281.45 L 342.31 281.01 L 342.52 280.62 L 342.52 280.62 L 342.07 283.05 L 336.53 285.64 L 327.88 289.23 L 317.34 293.33 L 306.87 297.26 L 296.89 300.78 L 290.46 303.04 L 282.51 305.89 L 282.14 305.97 L 281.76 305.96 L 281.4 305.85 L 281.07 305.67 L 280.8 305.41 L 280.59 305.09 L 280.46 304.73 L 280.43 304.36 L 280.49 303.98 L 280.63 303.63 L 280.85 303.32 L 281.14 303.08 L 281.49 302.91 L 281.49 302.91" fill="rgb(0, 0, 0)" stroke="rgb(0, 0, 0)" stroke-miterlimit="10" pointer-events="all"/></g></g><g data-cell-id="fGU3WEagON-DqYOOjsWN-178"><g><path d="M 346.83 279.01 L 351.04 281.62 L 355.2 285.33 L 359.03 289.48 L 362.17 293.34 L 364.64 296.7 L 364.85 297.13 L 364.91 297.59 L 364.82 298.05 L 364.58 298.46 L 364.23 298.76 L 363.8 298.95 L 363.33 298.98 L 362.88 298.86 L 362.49 298.61 L 362.2 298.24 L 362.04 297.8 L 362.03 297.33 L 362.17 296.89 L 362.45 296.51 L 362.83 296.24 L 363.28 296.1 L 363.75 296.12 L 364.18 296.29 L 364.55 296.58 L 364.8 296.98 L 364.91 297.43 L 364.86 297.9 L 364.68 298.33 L 364.36 298.68 L 363.95 298.9 L 363.49 298.99 L 363.03 298.92 L 362.61 298.71 L 362.28 298.37 L 362.28 298.37 L 360.05 295.08 L 357 291.39 L 353.29 287.51 L 349.47 284.24 L 345.17 281.79 L 344.86 281.55 L 344.62 281.25 L 344.46 280.89 L 344.38 280.51 L 344.4 280.12 L 344.52 279.75 L 344.72 279.41 L 344.99 279.13 L 345.32 278.93 L 345.7 278.81 L 346.09 278.78 L 346.47 278.85 L 346.83 279.01 L 346.83 279.01" fill="rgb(0, 0, 0)" stroke="rgb(0, 0, 0)" stroke-miterlimit="10" pointer-events="all"/></g></g><g data-cell-id="fGU3WEagON-DqYOOjsWN-179"><g><path d="M 271.72 314.82 L 272.66 312.8 L 273.81 311.49 L 274.15 311.17 L 274.54 310.94 L 274.99 310.81 L 275.45 310.78 L 275.9 310.87 L 276.32 311.07 L 276.68 311.36 L 276.96 311.72 L 277.14 312.15 L 277.22 312.6 L 277.18 313.06 L 277.04 313.5 L 276.79 313.89 L 277.12 317.53 L 276.6 323.81 L 276.1 332.81 L 275.72 343.51 L 275.65 354.24 L 275.71 363.17 L 275.95 370.5 L 275.89 370.94 L 275.7 371.33 L 275.4 371.65 L 275.01 371.85 L 274.57 371.91 L 274.14 371.83 L 273.76 371.62 L 273.46 371.3 L 273.28 370.89 L 273.24 370.46 L 273.34 370.03 L 273.58 369.66 L 273.92 369.38 L 274.32 369.22 L 274.76 369.21 L 275.18 369.33 L 275.54 369.59 L 275.8 369.94 L 275.93 370.36 L 275.93 370.8 L 275.78 371.21 L 275.51 371.55 L 275.14 371.79 L 274.72 371.9 L 274.28 371.87 L 273.88 371.7 L 273.55 371.41 L 273.33 371.03 L 273.24 370.61 L 273.24 370.61 L 272.92 363.2 L 272.75 354.24 L 272.68 343.43 L 272.84 332.67 L 273.07 323.64 L 273.19 317.29 L 273.4 313.99 L 273.81 311.49 L 274.15 311.17 L 274.54 310.94 L 274.99 310.81 L 275.45 310.78 L 275.9 310.87 L 276.32 311.07 L 276.68 311.36 L 276.96 311.72 L 277.14 312.15 L 277.22 312.6 L 277.18 313.06 L 277.04 313.5 L 276.79 313.89 L 275.81 314.49 L 274.68 316.38 L 274.45 316.71 L 274.15 316.98 L 273.79 317.16 L 273.4 317.26 L 272.99 317.26 L 272.6 317.16 L 272.24 316.98 L 271.94 316.71 L 271.72 316.37 L 271.57 316 L 271.53 315.59 L 271.58 315.2 L 271.72 314.82 L 271.72 314.82" fill="rgb(0, 0, 0)" stroke="rgb(0, 0, 0)" stroke-miterlimit="10" pointer-events="all"/></g></g><g data-cell-id="fGU3WEagON-DqYOOjsWN-180"><g><path d="M 294.69 324.76 L 293.12 330.84 L 291.76 338.27 L 290.47 347.73 L 289.22 358.77 L 288.11 370 L 287.28 379.83 L 286.93 387.18 L 287.04 391.86 L 287.75 394.67 L 287.87 395.11 L 287.85 395.57 L 287.67 395.99 L 287.37 396.34 L 286.98 396.58 L 286.53 396.67 L 286.07 396.62 L 285.66 396.42 L 285.33 396.11 L 285.11 395.7 L 285.04 395.25 L 285.12 394.79 L 285.34 394.39 L 285.67 394.08 L 286.09 393.88 L 286.55 393.84 L 286.99 393.94 L 287.39 394.18 L 287.68 394.53 L 287.85 394.96 L 287.87 395.42 L 287.75 395.86 L 287.49 396.24 L 287.12 396.51 L 286.68 396.66 L 286.22 396.65 L 285.79 396.5 L 285.43 396.22 L 285.17 395.85 L 285.17 395.85 L 284.44 391.91 L 284.38 387.07 L 284.71 379.62 L 285.51 369.75 L 286.58 358.48 L 287.78 347.38 L 289 337.79 L 290.29 330.15 L 291.71 324.04 L 291.84 323.69 L 292.05 323.39 L 292.33 323.14 L 292.66 322.97 L 293.01 322.88 L 293.38 322.88 L 293.74 322.97 L 294.07 323.14 L 294.34 323.38 L 294.55 323.68 L 294.69 324.03 L 294.73 324.4 L 294.69 324.76 L 294.69 324.76" fill="rgb(0, 0, 0)" stroke="rgb(0, 0, 0)" stroke-miterlimit="10" pointer-events="all"/></g></g><g data-cell-id="fGU3WEagON-DqYOOjsWN-181"><g><path d="M 270.46 374.89 L 270.27 372.24 L 271.2 369.78 L 273.73 369.32 L 277.01 373.37 L 278.66 376.91 L 280.6 380.93 L 282.47 384.61 L 284.08 387.19 L 286.46 389.04 L 287.07 389.29 L 287.57 389.72 L 287.91 390.28 L 288.04 390.93 L 287.96 391.58 L 287.68 392.17 L 287.23 392.65 L 286.64 392.95 L 285.99 393.05 L 285.34 392.94 L 284.77 392.63 L 284.32 392.15 L 284.05 391.54 L 283.98 390.89 L 284.13 390.25 L 284.47 389.69 L 284.98 389.27 L 285.59 389.03 L 286.25 389 L 286.88 389.18 L 287.42 389.56 L 287.82 390.08 L 288.02 390.71 L 288.01 391.37 L 287.8 391.99 L 287.39 392.51 L 286.85 392.87 L 286.21 393.04 L 285.55 393 L 285.55 393 L 280.72 389.21 L 279.08 386.39 L 277.09 382.77 L 274.83 378.8 L 272.04 373.35 L 274.3 372.08 L 274.34 374.71 L 274.31 375.18 L 274.16 375.63 L 273.91 376.03 L 273.57 376.35 L 273.17 376.59 L 272.72 376.72 L 272.25 376.74 L 271.79 376.65 L 271.36 376.45 L 271 376.15 L 270.72 375.78 L 270.53 375.35 L 270.46 374.88 L 270.46 374.89" fill="rgb(0, 0, 0)" stroke="rgb(0, 0, 0)" stroke-miterlimit="10" pointer-events="all"/></g></g><g data-cell-id="fGU3WEagON-DqYOOjsWN-182"><g><path d="M 295.2 392.18 L 300.9 385.57 L 309.65 377.16 L 321.35 367.36 L 333.81 357.69 L 344.53 349.78 L 351.59 344.38 L 355.09 340.81 L 355.41 340.47 L 355.81 340.25 L 356.26 340.16 L 356.72 340.23 L 357.13 340.43 L 357.45 340.76 L 357.65 341.17 L 357.72 341.63 L 357.63 342.08 L 357.4 342.48 L 357.06 342.79 L 356.63 342.97 L 356.17 343 L 355.72 342.89 L 355.34 342.64 L 355.05 342.28 L 354.89 341.85 L 354.89 341.38 L 355.02 340.95 L 355.29 340.58 L 355.67 340.31 L 356.11 340.17 L 356.57 340.19 L 357 340.35 L 357.36 340.64 L 357.6 341.03 L 357.71 341.48 L 357.67 341.94 L 357.49 342.36 L 357.49 342.36 L 353.16 346.44 L 346.09 351.9 L 335.46 359.8 L 323.12 369.46 L 311.63 379.19 L 303.17 387.49 L 297.6 394.22 L 297.33 394.47 L 296.99 394.66 L 296.63 394.76 L 296.25 394.77 L 295.87 394.69 L 295.53 394.52 L 295.25 394.27 L 295.02 393.97 L 294.88 393.61 L 294.82 393.23 L 294.86 392.86 L 294.99 392.5 L 295.2 392.18 L 295.2 392.18" fill="rgb(0, 0, 0)" stroke="rgb(0, 0, 0)" stroke-miterlimit="10" pointer-events="all"/></g></g><g data-cell-id="fGU3WEagON-DqYOOjsWN-183"><g><path d="M 358 299.68 L 359.46 296.33 L 360.73 293.3 L 361.94 290.55 L 362.92 287.87 L 363.17 287.44 L 363.51 287.08 L 363.93 286.82 L 364.4 286.66 L 364.89 286.62 L 365.38 286.7 L 365.84 286.9 L 366.24 287.19 L 366.55 287.58 L 366.76 288.02 L 366.86 288.51 L 366.84 289.01 L 366.7 289.48 L 364.45 296.06 L 362.55 303.87 L 361.13 313.66 L 360.84 323.57 L 361.37 332.1 L 362.37 338.42 L 363.93 345.06 L 363.94 345.55 L 363.8 346.03 L 363.52 346.43 L 363.12 346.72 L 362.65 346.87 L 362.16 346.86 L 361.69 346.7 L 361.3 346.39 L 361.03 345.98 L 360.91 345.5 L 360.94 345.01 L 361.14 344.55 L 361.46 344.18 L 361.89 343.93 L 362.37 343.83 L 362.86 343.9 L 363.31 344.11 L 363.66 344.46 L 363.88 344.9 L 363.96 345.39 L 363.87 345.88 L 363.63 346.3 L 363.26 346.64 L 362.81 346.84 L 362.32 346.88 L 361.84 346.77 L 361.42 346.5 L 361.11 346.12 L 360.93 345.66 L 360.93 345.66 L 359.66 338.86 L 358.54 332.3 L 357.88 323.51 L 358.02 313.24 L 359.25 303.14 L 360.89 295.02 L 362.92 287.87 L 363.17 287.44 L 363.51 287.08 L 363.93 286.82 L 364.4 286.66 L 364.89 286.62 L 365.38 286.7 L 365.84 286.9 L 366.24 287.19 L 366.55 287.58 L 366.76 288.02 L 366.86 288.51 L 366.84 289.01 L 366.7 289.48 L 365.41 292.19 L 364.11 294.78 L 362.73 297.8 L 361.2 301.12 L 360.99 301.48 L 360.69 301.78 L 360.32 302 L 359.92 302.13 L 359.5 302.16 L 359.08 302.08 L 358.69 301.91 L 358.36 301.64 L 358.1 301.31 L 357.92 300.93 L 357.85 300.51 L 357.87 300.09 L 358 299.68 L 358 299.68" fill="rgb(0, 0, 0)" stroke="rgb(0, 0, 0)" stroke-miterlimit="10" pointer-events="all"/></g></g></g></g></g></svg>